<?xml version="1.0" encoding="utf-8"?>
<!-- Generator: Adobe Illustrator 25.0.1, SVG Export Plug-In . SVG Version: 6.00 Build 0)  -->
<svg version="1.1" id="Orange" xmlns="http://www.w3.org/2000/svg" xmlns:xlink="http://www.w3.org/1999/xlink" x="0px" y="0px"
	 viewBox="0 0 255.2 162.7" style="enable-background:new 0 0 255.2 162.7;" xml:space="preserve">
<style type="text/css">
	.st0{opacity:0.2;}
	.st1{clip-path:url(#SVGID_2_);}
	.st2{fill:#3E3E3E;}
	.st3{fill:#C99E49;}
	.st4{fill:#A07A38;}
	.st5{fill:#187AA0;}
	.st6{fill:#EAC664;}
	.st7{fill:#EFD081;}
	.st8{clip-path:url(#SVGID_4_);}
	.st9{fill:#222222;}
	.st10{fill:#FFFFFF;}
	.st11{clip-path:url(#SVGID_6_);}
	.st12{fill:#896F00;}
</style>
<g>
	<g class="st0">
		<g>
			<g>
				<defs>
					<rect id="SVGID_1_" x="10" y="104.7" width="90.3" height="20.2"/>
				</defs>
				<clipPath id="SVGID_2_">
					<use xlink:href="#SVGID_1_"  style="overflow:visible;"/>
				</clipPath>
				<path class="st1" d="M55.1,104.7c-24.9,0-45.2,4.5-45.2,10.1c0,5.6,20.2,10.1,45.2,10.1s45.2-4.5,45.2-10.1
					C100.3,109.3,80.1,104.7,55.1,104.7"/>
			</g>
		</g>
	</g>
	<path class="st2" d="M55.5,14.7c9.8,0,18.2,6.3,21.3,15c0,0.1,0,0.1,0.1,0.2c0.2,0.5,0.3,1,0.5,1.6c0,0.2,0.1,0.3,0.1,0.5
		c0.1,0.5,0.2,0.9,0.3,1.4c0,0.3,0.1,0.5,0.1,0.8c0.1,0.4,0.1,0.8,0.2,1.2c0.1,0.7,0.1,1.4,0.1,2.1c7.7,5,13.7,12.3,17,21.1
		c0.6,0,1.2,0.1,1.8,0.2c1.2,0.2,2.4,0.6,3.5,1.1c0.6,0.3,1.2,0.7,1.7,1.1c2.4,1.9,3.8,4.8,4.3,8.3c1,7.5-2.4,17.8-9.7,26.8
		c-2,2.5-4.3,4.2-6.7,5.1c1.1,1.3,1.8,3,1.8,4.9c0,4.1-3.3,7.5-7.5,7.5c-0.9,0-1.8-0.2-2.7-0.5c-1,3.8-4.5,6.6-8.6,6.6c-5,0-9-4-9-9
		c0-2.2,0.8-4.2,2.2-5.8c-2.1,0.7-4.4,1.2-6.7,1.5c-1.3,0.2-2.7,0.2-4.1,0.2c-1.4,0-2.7-0.1-4-0.2c-2.3-0.3-4.5-0.8-6.6-1.5
		c1.3,1.6,2.1,3.5,2.1,5.7c0,4.9-4,9-9,9c-4.1,0-7.6-2.8-8.6-6.5c-0.8,0.3-1.7,0.5-2.7,0.5c-4.1,0-7.5-3.3-7.5-7.5
		c0-1.9,0.7-3.6,1.8-4.9c-2.4-1-4.7-2.6-6.7-5.1C7,86.8,3.5,76.5,4.6,69c0.5-3.4,1.9-6.2,4.3-8.1c0.5-0.4,1.1-0.8,1.7-1.1
		c1-0.5,2.2-0.9,3.4-1.1c0.6-0.1,1.2-0.2,1.8-0.2c3.3-8.8,9.3-16.2,17-21.1c0-0.7,0-1.3,0.1-2c0-0.5,0.1-1,0.2-1.4
		c0-0.2,0.1-0.4,0.1-0.6c0.1-0.5,0.2-1,0.3-1.5c0-0.1,0.1-0.2,0.1-0.4c0.2-0.6,0.3-1.1,0.5-1.6c0,0,0-0.1,0-0.1
		C37.4,20.9,45.7,14.7,55.5,14.7 M55.5,10.3c-11.3,0-21.6,7.2-25.5,17.8l0,0L30,28.3c-0.2,0.6-0.4,1.3-0.6,1.9l-0.1,0.4
		c-0.2,0.7-0.3,1.3-0.4,1.9c0,0.2-0.1,0.3-0.1,0.5l0,0.1c-0.1,0.6-0.2,1.2-0.2,1.7c-6.9,4.9-12.4,11.7-15.9,19.5
		c-1.4,0.3-2.8,0.8-4.1,1.5c-0.9,0.4-1.7,1-2.5,1.6C2.9,60,0.9,63.7,0.2,68.4C-1,77.3,3,89,10.9,98.8c1.3,1.6,2.8,3,4.4,4.2
		c-0.3,1-0.4,2-0.4,3.1c0,6.6,5.3,11.9,11.9,11.9c0,0,0.1,0,0.1,0c2.4,3.7,6.6,6,11.2,6c7.3,0,13.3-5.9,13.4-13.2
		c1.4,0.1,2.8,0.2,4.2,0.2c1.4,0,2.8-0.1,4.2-0.2c0.1,7.3,6,13.3,13.4,13.3c4.6,0,8.8-2.4,11.2-6.1c0,0,0,0,0.1,0
		c6.6,0,11.9-5.3,11.9-11.9c0-1-0.1-2.1-0.4-3.1c1.6-1.1,3.1-2.5,4.4-4.2c7.9-9.8,11.9-21.1,10.7-30.2c-0.6-4.7-2.7-8.5-5.9-11.1
		c-0.8-0.6-1.6-1.1-2.4-1.6c-1.3-0.7-2.7-1.2-4.2-1.5C95,46.7,89.5,39.9,82.6,35c0,0,0-0.1,0-0.1c0-0.4-0.1-0.8-0.2-1.3l0-0.2l0-0.2
		c0-0.2-0.1-0.5-0.1-0.7c-0.1-0.6-0.2-1.1-0.4-1.7c0-0.2-0.1-0.4-0.2-0.6c-0.2-0.6-0.4-1.2-0.6-1.8c0-0.1-0.1-0.2-0.1-0.3
		C77.1,17.4,66.9,10.3,55.5,10.3"/>
	<path class="st3" d="M14,58.6c-1.2,0.2-2.4,0.6-3.4,1.1c-0.6,0.3-1.2,0.7-1.7,1.1c-2.4,1.9-3.8,4.7-4.3,8.1
		C3.5,76.5,7,86.8,14.3,96c2,2.5,4.3,4.2,6.7,5.1c-1.1,1.3-1.8,3-1.8,4.9c0,4.1,3.3,7.5,7.5,7.5c3.2,0,5.9-2,7-4.8
		c0.3-0.8,0.5-1.7,0.5-2.7c0-1.7-0.5-3.2-1.5-4.4c7.2-1.7,6.5-6.3,10.5-9.5L42,73.8C33.4,63.1,22.1,57.3,14,58.6"/>
	<path class="st3" d="M106.5,69.1c-0.5-3.5-1.9-6.3-4.3-8.3c-0.5-0.4-1.1-0.8-1.7-1.1c-1.1-0.6-2.2-0.9-3.5-1.1
		c-8.1-1.3-19.3,4.5-27.9,15.2L67.9,92c4,3.2,3.3,7.8,10.5,9.5c-0.9,1.2-1.5,2.8-1.5,4.5c0,1,0.2,1.9,0.5,2.7c1.1,2.8,3.8,4.8,7,4.8
		c4.1,0,7.5-3.3,7.5-7.5c0-1.9-0.7-3.6-1.8-4.9c2.4-1,4.7-2.6,6.7-5.1C104.1,86.9,107.5,76.7,106.5,69.1"/>
	<path class="st3" d="M83.6,53.5c-0.9-1.3-1.8-2.4-2.8-3.6c-6.2-6.9-15.2-11.2-25.2-11.2c-10,0-19,4.3-25.2,11.2
		c-1,1.1-1.9,2.3-2.8,3.6c-3.7,5.4-5.9,12-5.9,19.1c0,6.1,1.6,11.8,4.4,16.8c2.6,4.6,6.3,8.5,10.7,11.5c4.3,2.9,9.4,4.8,14.8,5.4
		c1.3,0.2,2.7,0.2,4,0.2c1.4,0,2.7-0.1,4.1-0.2c5.4-0.6,10.5-2.6,14.8-5.5c4.4-2.9,8-6.9,10.7-11.4c2.8-4.9,4.4-10.7,4.4-16.8
		C89.5,65.5,87.3,59,83.6,53.5"/>
	<path class="st4" d="M55.5,95.8c-1.8,0-3.2,0.8-3.2,1.8c0,0.1,0,0.1,0,0.2c0.2,0.9,1.5,1.6,3.2,1.6s3-0.7,3.2-1.6
		c0-0.1,0-0.1,0-0.2C58.7,96.6,57.3,95.8,55.5,95.8"/>
	<path class="st5" d="M56.5,103.4c-6.7,0-13-0.7-18.6-1.8c4.1,2.5,8.7,4.2,13.7,4.8c1.3,0.2,2.7,0.2,4,0.2c1.4,0,2.7-0.1,4.1-0.2
		c4.6-0.6,9-2,12.8-4.2C67.5,102.9,62.1,103.4,56.5,103.4"/>
	<path class="st6" d="M55.9,30.6L55.9,30.6c-23.6-0.1-42.8,19.1-42.8,42.7c0,12.9,5.7,24.5,14.8,32.4c0,0,0,0,0,0
		c0.9,0.8,1.6,1.6,1.4,2.6v0c-0.2,0.7-0.3,1.4-0.3,2.2c0,4.9,4,9,9,9c5,0,9-4,9-9c0-2.3-0.9-4.5-2.4-6.1c0,0,0,0,0,0
		c-0.6-0.7-1-1.2-1-2.1V61.3V48.3l4.8-7h14.2l4.9,7.1v12.8v41.2c0,0.9-0.4,1.4-1,2.1c0,0,0,0,0,0c-1.5,1.6-2.4,3.7-2.4,6.1
		c0,4.9,4,9,9,9c4.9,0,9-4,9-9c0-0.8-0.1-1.5-0.3-2.2v0c-0.2-1,0.4-1.7,1.4-2.6c0,0,0,0,0,0C92.2,98,98,86.4,98,73.4
		C98,50,79.2,31,55.9,30.6"/>
	<path class="st7" d="M78.3,37.5c0,12.5-10.2,22.7-22.7,22.7C43,60.2,32.8,50,32.8,37.5c0-12.5,10.2-22.7,22.7-22.7
		C68.1,14.8,78.3,24.9,78.3,37.5"/>
	<g class="st0">
		<g>
			<g>
				<defs>
					<rect id="SVGID_3_" x="154.1" y="104.7" width="90.3" height="20.2"/>
				</defs>
				<clipPath id="SVGID_4_">
					<use xlink:href="#SVGID_3_"  style="overflow:visible;"/>
				</clipPath>
				<path class="st8" d="M199.3,104.7c-24.9,0-45.2,4.5-45.2,10.1c0,5.6,20.2,10.1,45.2,10.1c24.9,0,45.2-4.5,45.2-10.1
					C244.4,109.3,224.2,104.7,199.3,104.7"/>
			</g>
		</g>
	</g>
	<path class="st3" d="M158.2,58.6c-1.2,0.2-2.4,0.6-3.4,1.1c-0.6,0.3-1.2,0.7-1.7,1.1c-2.4,1.9-3.8,4.7-4.3,8.1
		c-1.1,7.5,2.4,17.8,9.7,27c2,2.5,4.3,4.2,6.7,5.1c-1.1,1.3-1.8,3-1.8,4.9c0,4.1,3.3,7.5,7.5,7.5c3.2,0,5.9-2,7-4.8
		c0.3-0.8,0.5-1.7,0.5-2.7c0-1.7-0.5-3.2-1.5-4.4c7.2-1.7,6.5-6.3,10.5-9.5l-1.2-18.2C177.5,63.1,166.2,57.3,158.2,58.6"/>
	<path class="st3" d="M250.6,69.1c-0.5-3.5-1.9-6.3-4.3-8.3c-0.5-0.4-1.1-0.8-1.7-1.1c-1.1-0.6-2.2-0.9-3.5-1.1
		c-8.1-1.3-19.3,4.5-27.9,15.2L212,92c4,3.2,3.3,7.8,10.5,9.5c-0.9,1.2-1.5,2.8-1.5,4.5c0,1,0.2,1.9,0.5,2.7c1.1,2.8,3.8,4.8,7,4.8
		c4.1,0,7.5-3.3,7.5-7.5c0-1.9-0.7-3.6-1.8-4.9c2.4-1,4.7-2.6,6.7-5.1C248.2,86.9,251.7,76.7,250.6,69.1"/>
	<path class="st3" d="M227.7,53.5c-0.9-1.3-1.8-2.4-2.8-3.6c-6.2-6.9-15.2-11.2-25.2-11.2c-10,0-19,4.3-25.2,11.2
		c-1,1.1-1.9,2.3-2.8,3.6c-3.7,5.4-5.9,12-5.9,19.1c0,6.1,1.6,11.8,4.4,16.8c2.6,4.6,6.3,8.5,10.7,11.5c4.3,2.9,9.4,4.8,14.8,5.4
		c1.3,0.2,2.7,0.2,4,0.2c1.4,0,2.7-0.1,4-0.2c5.4-0.6,10.4-2.6,14.8-5.5c4.4-2.9,8-6.9,10.7-11.4c2.8-4.9,4.4-10.7,4.4-16.8
		C233.6,65.5,231.4,59,227.7,53.5"/>
	<path class="st4" d="M199.7,95.8c-1.8,0-3.2,0.8-3.2,1.8c0,0.1,0,0.1,0,0.2c0.2,0.9,1.5,1.6,3.2,1.6c1.6,0,3-0.7,3.2-1.6
		c0-0.1,0-0.1,0-0.2C202.9,96.6,201.5,95.8,199.7,95.8"/>
	<path class="st2" d="M199.7,7.3c3.2,0,5.8,2.6,5.8,5.8c0,0.8-0.2,1.6-0.5,2.3c10,2.4,17.4,11.3,17.4,22c7.7,5,13.7,12.3,17,21.1
		c0.6,0,1.2,0.1,1.8,0.2c1.2,0.2,2.4,0.6,3.5,1.1c0.6,0.3,1.2,0.7,1.7,1.1c2.4,1.9,3.8,4.8,4.3,8.3c1,7.5-2.4,17.8-9.7,26.8
		c-2,2.5-4.3,4.2-6.7,5.1c1.1,1.3,1.8,3,1.8,4.9c0,4.1-3.3,7.5-7.5,7.5c-0.9,0-1.8-0.2-2.7-0.5c-1,3.8-4.5,6.6-8.6,6.6
		c-4.9,0-9-4-9-9c0-2.2,0.8-4.2,2.2-5.8c-2.1,0.7-4.4,1.2-6.7,1.5c-1.3,0.2-2.7,0.2-4,0.2c-1.4,0-2.7-0.1-4-0.2
		c-2.3-0.3-4.5-0.8-6.6-1.5c1.3,1.6,2.1,3.5,2.1,5.7c0,4.9-4,9-9,9c-4.1,0-7.6-2.8-8.6-6.5c-0.8,0.3-1.7,0.5-2.7,0.5
		c-4.1,0-7.5-3.3-7.5-7.5c0-1.9,0.7-3.6,1.8-4.9c-2.4-1-4.7-2.6-6.7-5.1c-7.3-9.1-10.8-19.5-9.7-27c0.5-3.4,1.9-6.2,4.3-8.1
		c0.5-0.4,1.1-0.8,1.7-1.1c1-0.5,2.2-0.9,3.4-1.1c0.6-0.1,1.2-0.2,1.8-0.2c3.3-8.8,9.3-16.2,17-21.1c0.1-10.6,7.5-19.5,17.4-21.9
		c-0.3-0.7-0.5-1.5-0.5-2.3C193.9,9.9,196.5,7.3,199.7,7.3 M199.7,2.9c-5.4,0-9.8,4.1-10.2,9.4c-9.4,3.8-15.9,12.4-16.8,22.6
		c-6.9,4.9-12.4,11.7-15.8,19.5c-1.4,0.3-2.8,0.8-4.1,1.4c-0.9,0.4-1.7,1-2.5,1.6c-3.2,2.6-5.2,6.3-5.9,11
		c-1.3,9,2.8,20.6,10.6,30.4c1.3,1.6,2.8,3,4.4,4.2c-0.3,1-0.4,2-0.4,3.1c0,6.6,5.3,11.9,11.9,11.9c0,0,0.1,0,0.1,0
		c2.4,3.7,6.6,6,11.2,6c7.3,0,13.3-5.9,13.4-13.2c1.4,0.1,2.8,0.2,4.2,0.2c1.4,0,2.8-0.1,4.2-0.2c0.1,7.3,6,13.3,13.4,13.3
		c4.6,0,8.8-2.4,11.2-6.1h0.1c6.6,0,11.9-5.3,11.9-11.9c0-1-0.1-2.1-0.4-3.1c1.6-1.1,3.1-2.5,4.4-4.2c7.9-9.8,11.9-21.1,10.7-30.2
		c-0.6-4.7-2.7-8.5-5.9-11.1c-0.8-0.6-1.6-1.1-2.4-1.6c-1.3-0.7-2.7-1.2-4.2-1.5c-3.4-7.7-8.9-14.5-15.8-19.4
		c-0.9-10.2-7.5-18.9-16.8-22.7C209.5,7.1,205,2.9,199.7,2.9"/>
	<path class="st5" d="M200.6,103.4c-6.7,0-13-0.7-18.6-1.8c4.1,2.5,8.7,4.2,13.7,4.8c1.3,0.2,2.7,0.2,4,0.2c1.4,0,2.7-0.1,4.1-0.2
		c4.6-0.6,9-2,12.8-4.2C211.6,102.9,206.3,103.4,200.6,103.4"/>
	<path class="st6" d="M200.1,30.6L200.1,30.6c-23.6-0.1-42.8,19.1-42.8,42.7c0,12.9,5.7,24.5,14.8,32.4c0,0,0,0,0,0
		c0.9,0.8,1.6,1.6,1.4,2.6v0c-0.2,0.7-0.3,1.4-0.3,2.2c0,4.9,4,9,9,9c4.9,0,9-4,9-9c0-2.3-0.9-4.5-2.4-6.1c0,0,0,0,0,0
		c-0.6-0.7-1-1.2-1-2.1V61.3V48.3l4.8-7h14.2l4.9,7.1v12.8v41.2c0,0.9-0.4,1.4-1,2.1c0,0,0,0,0,0c-1.5,1.6-2.4,3.7-2.4,6.1
		c0,4.9,4,9,9,9c4.9,0,9-4,9-9c0-0.8-0.1-1.5-0.3-2.2v0c-0.2-1,0.4-1.7,1.4-2.6c0,0,0,0,0,0c9.1-7.9,14.8-19.4,14.8-32.4
		C242.1,50,223.4,31,200.1,30.6"/>
	<path class="st9" d="M205.5,13.1c0,3.2-2.6,5.8-5.8,5.8c-3.2,0-5.8-2.6-5.8-5.8c0-3.2,2.6-5.8,5.8-5.8
		C202.9,7.3,205.5,9.9,205.5,13.1"/>
	<path class="st7" d="M222.4,37.5c0,12.5-10.2,22.7-22.7,22.7C187.1,60.2,177,50,177,37.5c0-12.5,10.2-22.7,22.7-22.7
		C212.2,14.8,222.4,24.9,222.4,37.5"/>
	<path class="st10" d="M193.4,49.7c0.7-2.8,3.3-4.8,6.2-4.8c3,0,5.5,2,6.2,4.8H193.4z"/>
	<path class="st9" d="M186.3,41.6c0-1,0.8-1.9,1.9-1.9c1,0,1.9,0.9,1.9,1.9H186.3z"/>
	<path class="st9" d="M209.3,41.6c0-1,0.8-1.9,1.9-1.9c1,0,1.9,0.9,1.9,1.9H209.3z"/>
	<g class="st0">
		<g>
			<g>
				<defs>
					<rect id="SVGID_5_" x="66.8" y="135.8" width="120.5" height="26.9"/>
				</defs>
				<clipPath id="SVGID_6_">
					<use xlink:href="#SVGID_5_"  style="overflow:visible;"/>
				</clipPath>
				<path class="st11" d="M127.1,135.8c-33.3,0-60.2,6-60.2,13.5c0,7.4,27,13.5,60.2,13.5c33.3,0,60.2-6,60.2-13.5
					C187.3,141.8,160.3,135.8,127.1,135.8"/>
			</g>
		</g>
	</g>
	<path class="st3" d="M72.2,74.3c-1.6,0.3-3.1,0.8-4.5,1.5c-0.8,0.4-1.6,0.9-2.3,1.5c-3.2,2.5-5,6.3-5.7,10.8
		c-1.4,10,3.2,23.8,12.9,36c2.7,3.3,5.7,5.5,9,6.8c-1.5,1.7-2.4,4-2.4,6.5c0,5.5,4.5,10,10,10c4.3,0,7.9-2.7,9.3-6.4
		c0.4-1.1,0.6-2.3,0.6-3.5c0-2.2-0.7-4.3-2-5.9c9.6-2.3,8.7-8.4,14-12.7l-1.6-24.3C98.1,80.2,83,72.5,72.2,74.3"/>
	<path class="st3" d="M195.6,88.3c-0.6-4.6-2.5-8.5-5.7-11c-0.7-0.6-1.5-1.1-2.3-1.5c-1.4-0.7-3-1.2-4.6-1.5
		c-10.7-1.8-25.8,6-37.2,20.2l-1.6,24.3c5.3,4.3,4.4,10.4,14,12.7c-1.2,1.7-2,3.7-2,5.9c0,1.3,0.2,2.5,0.7,3.6
		c1.4,3.7,5.1,6.3,9.3,6.3c5.5,0,10-4.5,10-10c0-2.5-0.9-4.8-2.4-6.5c3.2-1.3,6.3-3.5,9-6.8C192.3,112,196.9,98.3,195.6,88.3"/>
	<path class="st3" d="M165,67.5c-1.1-1.7-2.4-3.3-3.7-4.8c-8.3-9.2-20.3-15-33.6-15c-13.3,0-25.3,5.8-33.6,15
		c-1.3,1.5-2.6,3.1-3.7,4.7c-5,7.3-7.9,16-7.9,25.5c0,8.1,2.1,15.8,5.9,22.3c3.5,6.1,8.4,11.4,14.3,15.3c5.8,3.9,12.5,6.4,19.7,7.3
		c1.8,0.2,3.6,0.3,5.4,0.3c1.8,0,3.6-0.1,5.4-0.3c7.2-0.9,13.9-3.4,19.7-7.3c5.8-3.9,10.7-9.1,14.2-15.3c3.8-6.6,5.9-14.2,5.9-22.3
		C172.8,83.5,169.9,74.8,165,67.5"/>
	<path class="st4" d="M127.6,123.9c-2.3,0-4.2,1.1-4.2,2.4c0,0.1,0,0.2,0,0.3c0.2,1.2,2,2.1,4.2,2.1c2.2,0,4-0.9,4.2-2.1
		c0-0.1,0-0.2,0-0.3C131.9,124.9,130,123.9,127.6,123.9"/>
	<path class="st2" d="M127.6,5.9c4.3,0,7.7,3.4,7.7,7.7c0,1.1-0.2,2.1-0.6,3c13.3,3.2,23.1,15.1,23.2,29.3
		c10.3,6.6,18.3,16.5,22.7,28.1c0.8,0,1.6,0.1,2.4,0.2c1.7,0.3,3.2,0.8,4.6,1.5c0.8,0.4,1.6,0.9,2.3,1.5c3.2,2.6,5.1,6.4,5.7,11
		c1.3,10-3.2,23.7-13,35.8c-2.7,3.4-5.7,5.5-9,6.8c1.5,1.7,2.4,4,2.4,6.5c0,5.5-4.5,10-10,10c-1.3,0-2.4-0.2-3.5-0.7
		c-1.4,5.1-6,8.8-11.5,8.8c-6.6,0-11.9-5.4-11.9-11.9c0-3,1.1-5.7,2.9-7.8c-2.9,1-5.8,1.6-8.9,2c-1.8,0.2-3.6,0.3-5.4,0.3
		c-1.8,0-3.6-0.1-5.4-0.3c-3.1-0.4-6-1-8.8-2c1.7,2.1,2.8,4.7,2.8,7.6c0,6.6-5.4,11.9-11.9,11.9c-5.5,0-10.1-3.7-11.5-8.7
		c-1.1,0.4-2.3,0.7-3.6,0.7c-5.5,0-10-4.5-10-10c0-2.5,0.9-4.8,2.4-6.5c-3.3-1.3-6.3-3.5-9-6.8c-9.8-12.2-14.4-25.9-12.9-36
		c0.6-4.5,2.5-8.3,5.7-10.8c0.7-0.6,1.5-1.1,2.3-1.5c1.4-0.7,2.9-1.2,4.5-1.5c0.8-0.1,1.6-0.2,2.4-0.2C79,62.4,87,52.5,97.3,45.9
		c0.1-14.2,10-26,23.2-29.2c-0.4-0.9-0.6-2-0.6-3C119.9,9.3,123.4,5.9,127.6,5.9 M127.6,0c-7.1,0-13,5.5-13.6,12.5
		c-12.5,5-21.2,16.6-22.4,30.1c-9.2,6.6-16.6,15.6-21.1,26c-1.9,0.4-3.8,1-5.5,1.9c-1.2,0.6-2.3,1.3-3.3,2.1
		c-4.2,3.4-6.9,8.4-7.8,14.6c-1.7,12,3.7,27.5,14.2,40.5c1.7,2.2,3.7,4,5.8,5.5c-0.4,1.3-0.5,2.7-0.5,4.1c0,8.7,7.1,15.9,15.9,15.9
		h0.2c3.2,4.9,8.8,8,14.9,8c9.8,0,17.7-7.9,17.8-17.6c1.9,0.2,3.7,0.3,5.6,0.3c1.8,0,3.7-0.1,5.6-0.3c0.1,9.8,8.1,17.7,17.8,17.7
		c6.1,0,11.7-3.2,15-8.1h0.1c8.7,0,15.9-7.1,15.9-15.9c0-1.4-0.2-2.8-0.5-4.1c2.1-1.5,4.1-3.4,5.8-5.6
		c10.5-13.1,15.8-28.2,14.2-40.3c-0.8-6.3-3.6-11.4-7.9-14.9c-1-0.8-2-1.5-3.2-2.1c-1.8-0.9-3.6-1.6-5.6-2
		c-4.6-10.3-11.9-19.3-21.1-25.9c-1.2-13.6-9.9-25.2-22.5-30.2C140.6,5.5,134.8,0,127.6,0"/>
	<path class="st5" d="M128.8,134c-8.9,0-17.4-0.9-24.8-2.4c5.4,3.3,11.6,5.5,18.2,6.3c1.8,0.2,3.6,0.3,5.4,0.3
		c1.8,0,3.6-0.1,5.4-0.3c6.2-0.7,11.9-2.7,17.1-5.7C143.5,133.4,136.4,134,128.8,134"/>
	<path class="st6" d="M128.1,36.9l0.1-0.1c-31.5,0-57.1,25.6-57.1,57.1c0,17.2,7.7,32.7,19.7,43.2c0,0,0,0,0,0
		c1.2,1.1,2.1,2.1,1.8,3.4v0c-0.2,0.9-0.4,1.9-0.4,2.9c0,6.6,5.3,11.9,11.9,11.9c6.6,0,11.9-5.4,11.9-11.9c0-3.1-1.2-5.9-3.1-8.1
		c0,0,0,0,0,0c-0.7-0.9-1.3-1.6-1.3-2.8V77.8V60.6l6.4-9.3H137l6.5,9.4v17.1v54.9c0,1.1-0.6,1.9-1.3,2.8c0,0,0,0,0,0
		c-1.9,2.1-3.1,4.9-3.1,8.1c0,6.6,5.3,11.9,11.9,11.9c6.6,0,12-5.4,12-11.9c0-1-0.1-2-0.4-2.9c0,0,0,0,0,0c-0.3-1.4,0.6-2.3,1.8-3.4
		c0,0,0,0,0,0c12.1-10.5,19.7-25.9,19.7-43.2C184.2,62.9,159.2,37.5,128.1,36.9"/>
	<path class="st12" d="M135.3,13.6c0,4.3-3.5,7.7-7.7,7.7c-4.3,0-7.7-3.5-7.7-7.7c0-4.3,3.4-7.7,7.7-7.7
		C131.9,5.9,135.3,9.4,135.3,13.6"/>
	<path class="st7" d="M157.9,46.1c0,16.7-13.6,30.3-30.3,30.3c-16.7,0-30.3-13.6-30.3-30.3c0-16.7,13.6-30.3,30.3-30.3
		C144.3,15.8,157.9,29.4,157.9,46.1"/>
	<path class="st10" d="M119.3,56c1,3.7,4.3,6.4,8.3,6.4c4,0,7.3-2.7,8.3-6.4H119.3z"/>
	<path class="st9" d="M109.7,51.6c0-1.4,1.1-2.5,2.5-2.5c1.4,0,2.5,1.1,2.5,2.5H109.7z"/>
	<path class="st9" d="M140.5,51.6c0-1.4,1.1-2.5,2.5-2.5c1.4,0,2.5,1.1,2.5,2.5H140.5z"/>
	<path class="st10" d="M59,49c0,1.9-1.5,3.4-3.4,3.4c-1.9,0-3.4-1.5-3.4-3.4c0-1.9,1.5-3.4,3.4-3.4C57.4,45.6,59,47.1,59,49"/>
	<path class="st9" d="M68.6,41.6L68.6,41.6c0-0.8-0.7-1.5-1.5-1.5c-0.8,0-1.5,0.7-1.5,1.5v0c0,0,0,0,0,0h0c0,0.8,0.7,1.5,1.5,1.5
		C67.9,43.1,68.6,42.4,68.6,41.6L68.6,41.6z"/>
	<path class="st9" d="M45.5,41.6C45.5,41.6,45.5,41.6,45.5,41.6L45.5,41.6c0-0.8-0.7-1.5-1.5-1.5c-0.8,0-1.5,0.7-1.5,1.5h0
		c0,0,0,0,0,0s0,0,0,0h0c0,0.8,0.7,1.5,1.5,1.5C44.8,43.1,45.5,42.4,45.5,41.6L45.5,41.6z"/>
	<polygon class="st9" points="201.8,59.1 199.7,64.2 197.5,59.1 	"/>
</g>
</svg>
