<?xml version="1.0" encoding="utf-8"?>
<!-- Generator: Adobe Illustrator 24.0.3, SVG Export Plug-In . SVG Version: 6.00 Build 0)  -->
<svg version="1.1" id="Layer_1" xmlns="http://www.w3.org/2000/svg" xmlns:xlink="http://www.w3.org/1999/xlink" x="0px" y="0px"
	 viewBox="0 0 447 131" style="enable-background:new 0 0 447 131;" xml:space="preserve">
<style type="text/css">
	.st0{opacity:0.2;}
	.st1{clip-path:url(#SVGID_2_);}
	.st2{fill:#FFFFFF;}
	.st3{fill:#C99E49;}
	.st4{fill:#A07A38;}
	.st5{fill:#187AA0;}
	.st6{fill:#EAC664;}
	.st7{fill:#EFD081;}
	.st8{clip-path:url(#SVGID_4_);}
	.st9{fill:#222222;}
	.st10{clip-path:url(#SVGID_6_);}
	.st11{fill:#896F00;}
	.st12{fill:#E84914;}
</style>
<g>
	<g class="st0">
		<g>
			<defs>
				<rect id="SVGID_1_" x="35.2" y="74.8" width="40.4" height="9"/>
			</defs>
			<clipPath id="SVGID_2_">
				<use xlink:href="#SVGID_1_"  style="overflow:visible;"/>
			</clipPath>
			<path class="st1" d="M55.4,74.8c-11.1,0-20.2,2-20.2,4.5c0,2.5,9,4.5,20.2,4.5c11.1,0,20.2-2,20.2-4.5
				C75.6,76.8,66.5,74.8,55.4,74.8"/>
		</g>
	</g>
	<path class="st2" d="M55.6,34.5c4.4,0,8.1,2.8,9.5,6.7c0,0,0,0.1,0,0.1c0.1,0.2,0.2,0.5,0.2,0.7c0,0.1,0,0.1,0.1,0.2
		c0.1,0.2,0.1,0.4,0.1,0.6c0,0.1,0,0.2,0.1,0.3c0,0.2,0.1,0.4,0.1,0.5c0,0.3,0,0.6,0,0.9c3.5,2.2,6.1,5.5,7.6,9.4
		c0.3,0,0.5,0,0.8,0.1c0.6,0.1,1.1,0.3,1.6,0.5c0.3,0.1,0.5,0.3,0.8,0.5c1.1,0.9,1.7,2.2,1.9,3.7c0.5,3.4-1.1,7.9-4.3,12
		c-0.9,1.1-1.9,1.9-3,2.3c0.5,0.6,0.8,1.4,0.8,2.2c0,1.8-1.5,3.3-3.3,3.3c-0.4,0-0.8-0.1-1.2-0.2c-0.5,1.7-2,2.9-3.9,2.9
		c-2.2,0-4-1.8-4-4c0-1,0.4-1.9,1-2.6c-1,0.3-2,0.6-3,0.7c-0.6,0.1-1.2,0.1-1.8,0.1c-0.6,0-1.2,0-1.8-0.1c-1-0.1-2-0.3-3-0.7
		c0.6,0.7,0.9,1.6,0.9,2.5c0,2.2-1.8,4-4,4c-1.8,0-3.4-1.2-3.8-2.9c-0.4,0.1-0.8,0.2-1.2,0.2c-1.8,0-3.3-1.5-3.3-3.3
		c0-0.8,0.3-1.6,0.8-2.2c-1.1-0.4-2.1-1.2-3-2.3c-3.3-4.1-4.8-8.7-4.3-12.1c0.2-1.5,0.8-2.8,1.9-3.6c0.2-0.2,0.5-0.4,0.8-0.5
		c0.5-0.2,1-0.4,1.5-0.5c0.3,0,0.5-0.1,0.8-0.1c1.5-3.9,4.2-7.2,7.6-9.4c0-0.3,0-0.6,0-0.9c0-0.2,0.1-0.4,0.1-0.6c0-0.1,0-0.2,0-0.3
		c0-0.2,0.1-0.5,0.2-0.7c0-0.1,0-0.1,0-0.2c0.1-0.2,0.1-0.5,0.2-0.7c0,0,0,0,0,0C47.5,37.3,51.2,34.5,55.6,34.5 M55.6,32.6
		c-5.1,0-9.7,3.2-11.4,8v0l0,0l0,0c-0.1,0.3-0.2,0.6-0.3,0.9c0,0,0,0.1,0,0.2c-0.1,0.3-0.1,0.6-0.2,0.8c0,0.1,0,0.2,0,0.2l0,0.1
		c0,0.3-0.1,0.5-0.1,0.8c-3.1,2.2-5.6,5.2-7.1,8.7c-0.6,0.1-1.3,0.3-1.8,0.6c-0.4,0.2-0.8,0.4-1.1,0.7c-1.4,1.1-2.3,2.8-2.6,4.9
		c-0.6,4,1.2,9.2,4.8,13.6c0.6,0.7,1.2,1.4,1.9,1.9c-0.1,0.4-0.2,0.9-0.2,1.4c0,2.9,2.4,5.3,5.3,5.3h0.1c1.1,1.6,3,2.7,5,2.7
		c3.3,0,5.9-2.6,6-5.9c0.6,0.1,1.2,0.1,1.9,0.1c0.6,0,1.2,0,1.9-0.1c0,3.3,2.7,5.9,6,5.9c2.1,0,3.9-1.1,5-2.7h0
		c2.9,0,5.3-2.4,5.3-5.3c0-0.5-0.1-0.9-0.2-1.4c0.7-0.5,1.4-1.1,1.9-1.9c3.5-4.4,5.3-9.4,4.8-13.5c-0.3-2.1-1.2-3.8-2.6-5
		c-0.3-0.3-0.7-0.5-1.1-0.7c-0.6-0.3-1.2-0.5-1.9-0.7c-1.5-3.4-4-6.5-7.1-8.7c0,0,0,0,0,0c0-0.2,0-0.4-0.1-0.5l0-0.1l0-0.1
		c0-0.1,0-0.2-0.1-0.3c0-0.2-0.1-0.5-0.2-0.8c0-0.1,0-0.2-0.1-0.3c-0.1-0.3-0.2-0.5-0.3-0.8c0,0,0-0.1-0.1-0.1
		C65.2,35.7,60.6,32.6,55.6,32.6"/>
	<path class="st3" d="M37,54.2c-0.5,0.1-1.1,0.3-1.5,0.5c-0.3,0.1-0.5,0.3-0.8,0.5c-1.1,0.9-1.7,2.1-1.9,3.6
		c-0.5,3.4,1.1,8,4.3,12.1c0.9,1.1,1.9,1.9,3,2.3c-0.5,0.6-0.8,1.4-0.8,2.2c0,1.8,1.5,3.3,3.3,3.3c1.4,0,2.6-0.9,3.1-2.2
		c0.1-0.4,0.2-0.8,0.2-1.2c0-0.7-0.2-1.4-0.7-2c3.2-0.8,2.9-2.8,4.7-4.2l-0.6-8.2C45.7,56.2,40.6,53.6,37,54.2"/>
	<path class="st3" d="M78.4,58.9c-0.2-1.5-0.8-2.8-1.9-3.7c-0.2-0.2-0.5-0.4-0.8-0.5c-0.5-0.2-1-0.4-1.6-0.5
		c-3.6-0.6-8.6,2-12.5,6.8l-0.6,8.2c1.8,1.4,1.5,3.5,4.7,4.2c-0.4,0.6-0.7,1.2-0.7,2c0,0.4,0.1,0.8,0.2,1.2c0.5,1.2,1.7,2.1,3.1,2.1
		c1.8,0,3.3-1.5,3.3-3.3c0-0.8-0.3-1.6-0.8-2.2c1.1-0.4,2.1-1.2,3-2.3C77.3,66.8,78.8,62.2,78.4,58.9"/>
	<path class="st3" d="M68.1,51.9c-0.4-0.6-0.8-1.1-1.3-1.6c-2.8-3.1-6.8-5-11.3-5c-4.5,0-8.5,1.9-11.3,5c-0.4,0.5-0.9,1-1.2,1.6
		c-1.7,2.4-2.6,5.4-2.6,8.5c0,2.7,0.7,5.3,2,7.5c1.2,2.1,2.8,3.8,4.8,5.1c1.9,1.3,4.2,2.1,6.6,2.4c0.6,0.1,1.2,0.1,1.8,0.1
		c0.6,0,1.2,0,1.8-0.1c2.4-0.3,4.7-1.1,6.6-2.4c2-1.3,3.6-3.1,4.8-5.1c1.3-2.2,2-4.8,2-7.5C70.7,57.3,69.8,54.3,68.1,51.9"/>
	<path class="st4" d="M55.6,70.8c-0.8,0-1.4,0.4-1.4,0.8c0,0,0,0.1,0,0.1c0.1,0.4,0.7,0.7,1.4,0.7c0.7,0,1.3-0.3,1.4-0.7
		c0,0,0-0.1,0-0.1C57,71.1,56.4,70.8,55.6,70.8"/>
	<path class="st5" d="M56,74.2c-3,0-5.8-0.3-8.3-0.8c1.8,1.1,3.9,1.9,6.1,2.1c0.6,0.1,1.2,0.1,1.8,0.1c0.6,0,1.2,0,1.8-0.1
		c2.1-0.2,4-0.9,5.7-1.9C60.9,74,58.5,74.2,56,74.2"/>
	<path class="st6" d="M55.7,41.6L55.7,41.6c-10.5,0-19.1,8.5-19.1,19.1c0,5.8,2.6,11,6.6,14.5c0,0,0,0,0,0c0.4,0.4,0.7,0.7,0.6,1.2
		v0c-0.1,0.3-0.1,0.6-0.1,1c0,2.2,1.8,4,4,4c2.2,0,4-1.8,4-4c0-1-0.4-2-1.1-2.7c0,0,0,0,0,0c-0.2-0.3-0.4-0.5-0.4-0.9V55.3v-5.8
		l2.2-3.1h6.3l2.2,3.2v5.7v18.4c0,0.4-0.2,0.6-0.4,0.9c0,0,0,0,0,0c-0.7,0.7-1.1,1.7-1.1,2.7c0,2.2,1.8,4,4,4c2.2,0,4-1.8,4-4
		c0-0.3,0-0.7-0.1-1v0c-0.1-0.5,0.2-0.8,0.6-1.2c0,0,0,0,0,0c4.1-3.5,6.6-8.7,6.6-14.5C74.5,50.3,66.2,41.8,55.7,41.6"/>
	<path class="st7" d="M65.7,44.7c0,5.6-4.5,10.1-10.1,10.1c-5.6,0-10.1-4.5-10.1-10.1c0-5.6,4.5-10.1,10.1-10.1
		C61.2,34.6,65.7,39.1,65.7,44.7"/>
	<g class="st0">
		<g>
			<defs>
				<rect id="SVGID_3_" x="99.6" y="74.8" width="40.4" height="9"/>
			</defs>
			<clipPath id="SVGID_4_">
				<use xlink:href="#SVGID_3_"  style="overflow:visible;"/>
			</clipPath>
			<path class="st8" d="M119.8,74.8c-11.1,0-20.2,2-20.2,4.5c0,2.5,9,4.5,20.2,4.5c11.1,0,20.2-2,20.2-4.5
				C140,76.8,131,74.8,119.8,74.8"/>
		</g>
	</g>
	<path class="st3" d="M101.4,54.2c-0.5,0.1-1.1,0.3-1.5,0.5c-0.3,0.1-0.5,0.3-0.8,0.5c-1.1,0.9-1.7,2.1-1.9,3.6
		c-0.5,3.4,1.1,8,4.3,12.1c0.9,1.1,1.9,1.9,3,2.3c-0.5,0.6-0.8,1.4-0.8,2.2c0,1.8,1.5,3.3,3.3,3.3c1.4,0,2.6-0.9,3.1-2.2
		c0.1-0.4,0.2-0.8,0.2-1.2c0-0.7-0.2-1.4-0.7-2c3.2-0.8,2.9-2.8,4.7-4.2l-0.6-8.2C110.1,56.2,105,53.6,101.4,54.2"/>
	<path class="st3" d="M142.8,58.9c-0.2-1.5-0.8-2.8-1.9-3.7c-0.2-0.2-0.5-0.4-0.8-0.5c-0.5-0.2-1-0.4-1.6-0.5
		c-3.6-0.6-8.6,2-12.5,6.8l-0.6,8.2c1.8,1.4,1.5,3.5,4.7,4.2c-0.4,0.6-0.7,1.2-0.7,2c0,0.4,0.1,0.8,0.2,1.2c0.5,1.2,1.7,2.1,3.1,2.1
		c1.8,0,3.3-1.5,3.3-3.3c0-0.8-0.3-1.6-0.8-2.2c1.1-0.4,2.1-1.2,3-2.3C141.7,66.8,143.2,62.2,142.8,58.9"/>
	<path class="st3" d="M132.5,51.9c-0.4-0.6-0.8-1.1-1.3-1.6c-2.8-3.1-6.8-5-11.3-5c-4.5,0-8.5,1.9-11.3,5c-0.4,0.5-0.9,1-1.2,1.6
		c-1.7,2.4-2.6,5.4-2.6,8.5c0,2.7,0.7,5.3,2,7.5c1.2,2.1,2.8,3.8,4.8,5.1c1.9,1.3,4.2,2.1,6.6,2.4c0.6,0.1,1.2,0.1,1.8,0.1
		c0.6,0,1.2,0,1.8-0.1c2.4-0.3,4.7-1.1,6.6-2.4c2-1.3,3.6-3.1,4.8-5.1c1.3-2.2,2-4.8,2-7.5C135.1,57.3,134.2,54.3,132.5,51.9"/>
	<path class="st4" d="M120,70.8c-0.8,0-1.4,0.4-1.4,0.8c0,0,0,0.1,0,0.1c0.1,0.4,0.7,0.7,1.4,0.7c0.7,0,1.3-0.3,1.4-0.7
		c0,0,0-0.1,0-0.1C121.4,71.1,120.8,70.8,120,70.8"/>
	<path class="st2" d="M120,31.2c1.4,0,2.6,1.2,2.6,2.6c0,0.4-0.1,0.7-0.2,1c4.4,1.1,7.8,5.1,7.8,9.8c3.5,2.2,6.1,5.5,7.6,9.4
		c0.3,0,0.5,0,0.8,0.1c0.6,0.1,1.1,0.3,1.6,0.5c0.3,0.1,0.5,0.3,0.8,0.5c1.1,0.9,1.7,2.2,1.9,3.7c0.4,3.4-1.1,7.9-4.3,12
		c-0.9,1.1-1.9,1.9-3,2.3c0.5,0.6,0.8,1.4,0.8,2.2c0,1.8-1.5,3.3-3.3,3.3c-0.4,0-0.8-0.1-1.2-0.2c-0.5,1.7-2,2.9-3.9,2.9
		c-2.2,0-4-1.8-4-4c0-1,0.4-1.9,1-2.6c-1,0.3-2,0.6-3,0.7c-0.6,0.1-1.2,0.1-1.8,0.1c-0.6,0-1.2,0-1.8-0.1c-1-0.1-2-0.3-3-0.7
		c0.6,0.7,0.9,1.6,0.9,2.5c0,2.2-1.8,4-4,4c-1.8,0-3.4-1.2-3.8-2.9c-0.4,0.1-0.8,0.2-1.2,0.2c-1.8,0-3.3-1.5-3.3-3.3
		c0-0.8,0.3-1.6,0.8-2.2c-1.1-0.4-2.1-1.2-3-2.3c-3.3-4.1-4.8-8.7-4.3-12.1c0.2-1.5,0.8-2.8,1.9-3.6c0.2-0.2,0.5-0.4,0.8-0.5
		c0.5-0.2,1-0.4,1.5-0.5c0.3,0,0.5-0.1,0.8-0.1c1.5-3.9,4.2-7.2,7.6-9.4c0-4.8,3.3-8.7,7.8-9.8c-0.1-0.3-0.2-0.7-0.2-1
		C117.4,32.4,118.6,31.2,120,31.2 M120,29.3c-2.4,0-4.4,1.9-4.5,4.2c-4.2,1.7-7.1,5.6-7.5,10.1c-3.1,2.2-5.6,5.2-7.1,8.7
		c-0.6,0.1-1.3,0.3-1.8,0.6c-0.4,0.2-0.8,0.4-1.1,0.7c-1.4,1.1-2.3,2.8-2.6,4.9c-0.6,4,1.2,9.2,4.8,13.6c0.6,0.7,1.2,1.4,1.9,1.9
		c-0.1,0.4-0.2,0.9-0.2,1.4c0,2.9,2.4,5.3,5.3,5.3h0.1c1.1,1.6,3,2.7,5,2.7c3.3,0,5.9-2.6,6-5.9c0.6,0.1,1.2,0.1,1.9,0.1
		c0.6,0,1.2,0,1.9-0.1c0,3.3,2.7,5.9,6,5.9c2.1,0,3.9-1.1,5-2.7h0c2.9,0,5.3-2.4,5.3-5.3c0-0.5-0.1-0.9-0.2-1.4
		c0.7-0.5,1.4-1.1,1.9-1.9c3.5-4.4,5.3-9.4,4.8-13.5c-0.3-2.1-1.2-3.8-2.6-5c-0.3-0.3-0.7-0.5-1.1-0.7c-0.6-0.3-1.2-0.5-1.9-0.7
		c-1.5-3.4-4-6.5-7.1-8.7c-0.4-4.5-3.3-8.4-7.5-10.1C124.4,31.1,122.4,29.3,120,29.3"/>
	<path class="st5" d="M120.4,74.2c-3,0-5.8-0.3-8.3-0.8c1.8,1.1,3.9,1.9,6.1,2.1c0.6,0.1,1.2,0.1,1.8,0.1c0.6,0,1.2,0,1.8-0.1
		c2.1-0.2,4-0.9,5.7-1.9C125.3,74,122.9,74.2,120.4,74.2"/>
	<path class="st6" d="M120.2,41.6L120.2,41.6c-10.5,0-19.1,8.5-19.1,19.1c0,5.8,2.6,11,6.6,14.5c0,0,0,0,0,0
		c0.4,0.4,0.7,0.7,0.6,1.2v0c-0.1,0.3-0.1,0.6-0.1,1c0,2.2,1.8,4,4,4c2.2,0,4-1.8,4-4c0-1-0.4-2-1.1-2.7c0,0,0,0,0,0
		c-0.2-0.3-0.4-0.5-0.4-0.9V55.3v-5.8l2.2-3.1h6.3l2.2,3.2v5.7v18.4c0,0.4-0.2,0.6-0.4,0.9v0c-0.7,0.7-1.1,1.7-1.1,2.7
		c0,2.2,1.8,4,4,4c2.2,0,4-1.8,4-4c0-0.3,0-0.7-0.1-1v0c-0.1-0.5,0.2-0.8,0.6-1.2c0,0,0,0,0,0c4.1-3.5,6.6-8.7,6.6-14.5
		C138.9,50.3,130.6,41.8,120.2,41.6"/>
	<path class="st9" d="M122.6,33.8c0,1.4-1.2,2.6-2.6,2.6c-1.4,0-2.6-1.2-2.6-2.6c0-1.4,1.2-2.6,2.6-2.6
		C121.4,31.2,122.6,32.4,122.6,33.8"/>
	<path class="st7" d="M130.1,44.7c0,5.6-4.5,10.1-10.1,10.1c-5.6,0-10.1-4.5-10.1-10.1c0-5.6,4.5-10.1,10.1-10.1
		C125.6,34.6,130.1,39.1,130.1,44.7"/>
	<path class="st2" d="M117.2,50.2c0.3-1.2,1.5-2.1,2.8-2.1c1.3,0,2.5,0.9,2.8,2.1H117.2z"/>
	<path class="st9" d="M114,46.6c0-0.5,0.4-0.8,0.8-0.8c0.5,0,0.8,0.4,0.8,0.8H114z"/>
	<path class="st9" d="M124.3,46.6c0-0.5,0.4-0.8,0.8-0.8c0.5,0,0.8,0.4,0.8,0.8H124.3z"/>
	<g class="st0">
		<g>
			<defs>
				<rect id="SVGID_5_" x="60.6" y="88.6" width="53.8" height="12"/>
			</defs>
			<clipPath id="SVGID_6_">
				<use xlink:href="#SVGID_5_"  style="overflow:visible;"/>
			</clipPath>
			<path class="st10" d="M87.5,88.6c-14.9,0-26.9,2.7-26.9,6c0,3.3,12,6,26.9,6c14.9,0,26.9-2.7,26.9-6
				C114.4,91.3,102.4,88.6,87.5,88.6"/>
		</g>
	</g>
	<path class="st3" d="M63,61.2c-0.7,0.1-1.4,0.3-2,0.7c-0.4,0.2-0.7,0.4-1,0.7c-1.4,1.1-2.2,2.8-2.5,4.8c-0.6,4.5,1.4,10.6,5.8,16.1
		c1.2,1.5,2.6,2.5,4,3c-0.7,0.8-1.1,1.8-1.1,2.9c0,2.5,2,4.5,4.5,4.5c1.9,0,3.5-1.2,4.2-2.9c0.2-0.5,0.3-1,0.3-1.6
		c0-1-0.3-1.9-0.9-2.6c4.3-1,3.9-3.7,6.3-5.7l-0.7-10.9C74.6,63.8,67.8,60.3,63,61.2"/>
	<path class="st3" d="M118.1,67.4c-0.3-2.1-1.1-3.8-2.5-4.9c-0.3-0.3-0.7-0.5-1-0.7c-0.6-0.3-1.3-0.6-2.1-0.7
		c-4.8-0.8-11.5,2.7-16.6,9l-0.7,10.9c2.4,1.9,2,4.6,6.3,5.7c-0.6,0.7-0.9,1.7-0.9,2.6c0,0.6,0.1,1.1,0.3,1.6
		c0.6,1.7,2.3,2.8,4.1,2.8c2.5,0,4.5-2,4.5-4.5c0-1.1-0.4-2.1-1.1-2.9c1.5-0.6,2.8-1.6,4-3.1C116.7,78,118.8,71.9,118.1,67.4"/>
	<path class="st3" d="M104.5,58.1c-0.5-0.7-1.1-1.5-1.7-2.1c-3.7-4.1-9.1-6.7-15-6.7c-6,0-11.3,2.6-15,6.7c-0.6,0.7-1.2,1.4-1.7,2.1
		c-2.2,3.2-3.5,7.2-3.5,11.4c0,3.6,1,7,2.6,10c1.6,2.7,3.8,5.1,6.4,6.8c2.6,1.7,5.6,2.9,8.8,3.2c0.8,0.1,1.6,0.1,2.4,0.1
		c0.8,0,1.6-0.1,2.4-0.1c3.2-0.4,6.2-1.5,8.8-3.3c2.6-1.7,4.8-4.1,6.4-6.8c1.7-2.9,2.6-6.4,2.6-10C108,65.3,106.7,61.4,104.5,58.1"
		/>
	<path class="st4" d="M87.8,83.3c-1,0-1.9,0.5-1.9,1.1c0,0,0,0.1,0,0.1c0.1,0.5,0.9,1,1.9,1c1,0,1.8-0.4,1.9-1c0,0,0-0.1,0-0.1
		C89.7,83.8,88.8,83.3,87.8,83.3"/>
	<path class="st2" d="M87.8,30.6c1.9,0,3.4,1.5,3.4,3.4c0,0.5-0.1,0.9-0.3,1.4c5.9,1.4,10.3,6.7,10.4,13.1c4.6,3,8.2,7.4,10.1,12.5
		c0.4,0,0.7,0,1.1,0.1c0.7,0.1,1.4,0.4,2.1,0.7c0.4,0.2,0.7,0.4,1,0.7c1.4,1.1,2.3,2.9,2.5,4.9c0.6,4.5-1.4,10.6-5.8,16
		c-1.2,1.5-2.6,2.5-4,3.1c0.7,0.8,1.1,1.8,1.1,2.9c0,2.5-2,4.5-4.5,4.5c-0.6,0-1.1-0.1-1.6-0.3c-0.6,2.3-2.7,3.9-5.1,3.9
		c-2.9,0-5.3-2.4-5.3-5.3c0-1.3,0.5-2.5,1.3-3.5c-1.3,0.4-2.6,0.7-4,0.9c-0.8,0.1-1.6,0.1-2.4,0.1c-0.8,0-1.6-0.1-2.4-0.1
		c-1.4-0.2-2.7-0.5-4-0.9c0.8,0.9,1.2,2.1,1.2,3.4c0,2.9-2.4,5.3-5.3,5.3c-2.4,0-4.5-1.6-5.1-3.9c-0.5,0.2-1,0.3-1.6,0.3
		c-2.5,0-4.5-2-4.5-4.5c0-1.1,0.4-2.1,1.1-2.9c-1.5-0.6-2.8-1.6-4-3c-4.4-5.4-6.4-11.6-5.8-16.1c0.3-2,1.1-3.7,2.5-4.8
		c0.3-0.3,0.7-0.5,1-0.7c0.6-0.3,1.3-0.5,2-0.7c0.3-0.1,0.7-0.1,1.1-0.1c1.9-5.2,5.5-9.6,10.1-12.6c0-6.3,4.4-11.6,10.4-13.1
		c-0.2-0.4-0.3-0.9-0.3-1.4C84.3,32.1,85.9,30.6,87.8,30.6 M87.8,28c-3.2,0-5.8,2.5-6.1,5.6c-5.6,2.2-9.5,7.4-10,13.4
		c-4.1,2.9-7.4,7-9.4,11.6c-0.9,0.2-1.7,0.5-2.5,0.9c-0.5,0.3-1,0.6-1.5,1c-1.9,1.5-3.1,3.8-3.5,6.5c-0.8,5.3,1.7,12.3,6.3,18.1
		c0.8,1,1.6,1.8,2.6,2.5c-0.2,0.6-0.2,1.2-0.2,1.8c0,3.9,3.2,7.1,7.1,7.1h0.1c1.4,2.2,3.9,3.6,6.7,3.6c4.4,0,7.9-3.5,8-7.9
		c0.9,0.1,1.7,0.1,2.5,0.1c0.8,0,1.6,0,2.5-0.1c0,4.4,3.6,7.9,8,7.9c2.7,0,5.2-1.4,6.7-3.6h0c3.9,0,7.1-3.2,7.1-7.1
		c0-0.6-0.1-1.2-0.2-1.8c0.9-0.7,1.8-1.5,2.6-2.5c4.7-5.9,7.1-12.6,6.3-18c-0.4-2.8-1.6-5.1-3.5-6.6c-0.4-0.3-0.9-0.7-1.4-0.9
		c-0.8-0.4-1.6-0.7-2.5-0.9c-2-4.6-5.3-8.6-9.4-11.6c-0.6-6.1-4.4-11.3-10-13.5C93.6,30.4,91,28,87.8,28"/>
	<path class="st5" d="M88.3,87.8c-4,0-7.8-0.4-11.1-1.1c2.4,1.5,5.2,2.5,8.2,2.8c0.8,0.1,1.6,0.1,2.4,0.1c0.8,0,1.6,0,2.4-0.1
		c2.8-0.3,5.3-1.2,7.6-2.5C94.9,87.6,91.7,87.8,88.3,87.8"/>
	<path class="st6" d="M88,44.5L88,44.5c-14.1-0.1-25.5,11.4-25.5,25.5c0,7.7,3.4,14.6,8.8,19.3c0,0,0,0,0,0c0.6,0.5,0.9,0.9,0.8,1.5
		v0c-0.1,0.4-0.2,0.9-0.2,1.3c0,2.9,2.4,5.3,5.3,5.3c2.9,0,5.3-2.4,5.3-5.3c0-1.4-0.5-2.7-1.4-3.6c0,0,0,0,0,0
		c-0.3-0.4-0.6-0.7-0.6-1.2V62.7V55l2.9-4.2H92l2.9,4.2v7.7v24.5c0,0.5-0.3,0.8-0.6,1.2v0c-0.9,0.9-1.4,2.2-1.4,3.6
		c0,2.9,2.4,5.3,5.3,5.3c3,0,5.3-2.4,5.3-5.3c0-0.5-0.1-0.9-0.2-1.3c0,0,0,0,0,0c-0.1-0.6,0.3-1,0.8-1.5c0,0,0,0,0,0
		c5.4-4.7,8.8-11.6,8.8-19.3C113.1,56.1,101.9,44.7,88,44.5"/>
	<path class="st11" d="M91.2,34c0,1.9-1.5,3.4-3.4,3.4c-1.9,0-3.4-1.5-3.4-3.4c0-1.9,1.5-3.4,3.4-3.4C89.7,30.6,91.2,32.1,91.2,34"
		/>
	<path class="st7" d="M101.3,48.6c0,7.5-6.1,13.5-13.5,13.5c-7.5,0-13.5-6.1-13.5-13.5c0-7.5,6.1-13.5,13.5-13.5
		C95.3,35,101.3,41.1,101.3,48.6"/>
	<path class="st2" d="M84.1,53c0.4,1.6,1.9,2.9,3.7,2.9c1.8,0,3.3-1.2,3.7-2.9H84.1z"/>
	<path class="st9" d="M79.8,51c0-0.6,0.5-1.1,1.1-1.1c0.6,0,1.1,0.5,1.1,1.1H79.8z"/>
	<path class="st9" d="M93.5,51c0-0.6,0.5-1.1,1.1-1.1c0.6,0,1.1,0.5,1.1,1.1H93.5z"/>
	<path class="st2" d="M57.1,49.9c0,0.8-0.7,1.5-1.5,1.5c-0.8,0-1.5-0.7-1.5-1.5c0-0.8,0.7-1.5,1.5-1.5C56.4,48.3,57.1,49,57.1,49.9"
		/>
	<path class="st9" d="M61.4,46.5L61.4,46.5L61.4,46.5c0-0.4-0.3-0.7-0.7-0.7c-0.4,0-0.7,0.3-0.7,0.7c0,0,0,0,0,0h0
		c0,0.4,0.3,0.7,0.7,0.7C61.1,47.2,61.4,46.9,61.4,46.5L61.4,46.5L61.4,46.5z"/>
	<path class="st9" d="M51.1,46.5C51.1,46.5,51.1,46.5,51.1,46.5L51.1,46.5c0-0.4-0.3-0.7-0.7-0.7c-0.4,0-0.7,0.3-0.7,0.7h0
		c0,0,0,0,0,0c0,0,0,0,0,0h0c0,0.4,0.3,0.7,0.7,0.7S51.1,46.9,51.1,46.5L51.1,46.5z"/>
	<polygon class="st9" points="121,54.4 120,56.7 119,54.4 	"/>
</g>
<g>
	<g>
		<path class="st9" d="M164.1,80.1c3.1,0,4.6,1.6,4.6,1.6l-1.7,2.2c0,0-1.2-1-2.8-1c-1.6,0-3.2,1.3-3.2,3.4c0,2.4,1.6,3.6,3.3,3.6
			c1.6,0,2.5-0.9,2.5-0.9v-0.5c0-0.2-0.1-0.4-0.4-0.4h-0.7v-2.5h2.6c0.9,0,1.2,0.4,1.2,1.2v5.6H167v-0.3c0-0.3,0-0.5,0-0.5h0
			c0,0-1.2,1.1-3.3,1.1c-3.1,0-5.9-2.2-5.9-6.4C157.8,82.8,160.5,80.1,164.1,80.1z"/>
		<path class="st9" d="M175.2,83.5c2.6,0,4,1.8,4,4.2c0,0.3-0.1,0.9-0.1,0.9h-5.5c0.2,1.1,1.1,1.6,2,1.6c1.3,0,2.3-0.9,2.3-0.9
			l1.2,2c0,0-1.4,1.4-3.7,1.4c-3.1,0-4.8-2.3-4.8-4.6C170.6,85.5,172.4,83.5,175.2,83.5z M176.2,86.8c0-0.5-0.4-1.1-1-1.1
			c-0.9,0-1.3,0.5-1.5,1.1H176.2z"/>
		<path class="st9" d="M184.8,83.5c2.6,0,4,1.8,4,4.2c0,0.3-0.1,0.9-0.1,0.9h-5.5c0.2,1.1,1.1,1.6,2,1.6c1.3,0,2.3-0.9,2.3-0.9
			l1.2,2c0,0-1.4,1.4-3.7,1.4c-3.1,0-4.8-2.3-4.8-4.6C180.2,85.5,182,83.5,184.8,83.5z M185.8,86.8c0-0.5-0.4-1.1-1-1.1
			c-0.9,0-1.3,0.5-1.5,1.1H185.8z"/>
		<path class="st9" d="M190.7,83.2c0-0.2-0.1-0.4-0.4-0.4h-0.6v-2.5h2.7c0.9,0,1.2,0.1,1.2,1v5.3h0.5c0.3,0,0.5,0,0.7-0.3l1.4-2.6
			h3.2l-2,3.4c-0.3,0.6-0.6,0.7-0.6,0.7v0c0,0,0.4,0.1,0.7,0.7l0.6,1.1c0.1,0.2,0.3,0.3,0.6,0.3h0.7v2.5h-2.2c-0.6,0-1-0.1-1.3-0.7
			l-1.3-2.4c-0.2-0.3-0.5-0.3-0.7-0.3h-0.3v3.4h-2.9V83.2z"/>
		<path class="st9" d="M201.2,89.2c0,0,1.2,1.3,2.6,1.3c0.4,0,0.7-0.1,0.7-0.4c0-0.7-4.4-1-4.4-3.8c0-1.9,1.8-2.7,3.6-2.7
			c1.4,0,3.4,0.4,3.4,2v1h-2.5v-0.4c0-0.2-0.4-0.4-0.8-0.4c-0.4,0-0.8,0.1-0.8,0.4c0,0.9,4.4,0.8,4.4,3.7c0,1.8-1.5,2.8-3.6,2.8
			c-2.5,0-3.9-1.6-3.9-1.6L201.2,89.2z"/>
		<path class="st9" d="M217.7,83.7c1,0,3.1,0.4,3.1,1.9v0.9h-1.5V86c0-0.6-1-0.9-1.6-0.9c-1.7,0-2.9,1.3-2.9,3.1c0,2,1.4,3.1,3,3.1
			c1.6,0,2.7-1.2,2.7-1.2l0.7,1.2c0,0-1.2,1.5-3.5,1.5c-2.7,0-4.6-1.9-4.6-4.5C213.1,85.6,214.9,83.7,217.7,83.7z"/>
		<path class="st9" d="M226.8,83.7c2.6,0,4.6,1.9,4.6,4.5c0,2.6-2.1,4.5-4.6,4.5s-4.6-1.9-4.6-4.5C222.1,85.6,224.2,83.7,226.8,83.7
			z M226.8,91.2c1.6,0,3-1.3,3-3.1c0-1.8-1.3-3.1-3-3.1c-1.6,0-2.9,1.3-2.9,3.1C223.8,90,225.1,91.2,226.8,91.2z"/>
		<path class="st9" d="M236.5,83.7c2,0,2.7,1.3,2.7,1.3h0c0,0,0-0.3,0-0.6v-2.2c0-0.3-0.1-0.4-0.4-0.4h-0.7v-1.4h1.6
			c0.8,0,1.1,0.3,1.1,1.1v9.1c0,0.3,0.1,0.4,0.4,0.4h0.7v1.4h-1.6c-0.7,0-1.1-0.3-1.1-0.9c0-0.3,0-0.4,0-0.4h0c0,0-0.7,1.6-2.8,1.6
			c-2.3,0-3.8-1.8-3.8-4.5C232.6,85.4,234.3,83.7,236.5,83.7z M239.2,88.2c0-1.5-0.8-3.1-2.4-3.1c-1.3,0-2.5,1.1-2.5,3.1
			c0,1.9,1,3.1,2.4,3.1C238,91.2,239.2,90.3,239.2,88.2z"/>
		<path class="st9" d="M243.8,85.7c0-0.3-0.1-0.4-0.4-0.4h-0.7v-1.4h1.6c0.8,0,1.1,0.3,1.1,1.1v5.7c0,0.3,0.1,0.4,0.4,0.4h0.7v1.4
			h-1.6c-0.8,0-1.1-0.3-1.1-1.1V85.7z M243.9,80.5h1.5v1.7h-1.5V80.5z"/>
		<path class="st9" d="M248.4,85.7c0-0.3-0.1-0.4-0.4-0.4h-0.7v-1.4h1.6c0.7,0,1.1,0.3,1.1,1v0.3c0,0.3,0,0.5,0,0.5h0
			c0.3-0.7,1.4-2,3.2-2c2,0,3,1.1,3,3.3v3.7c0,0.3,0.1,0.4,0.4,0.4h0.7v1.4h-1.6c-0.8,0-1.1-0.3-1.1-1.1v-4c0-1.2-0.2-2.2-1.6-2.2
			c-1.3,0-2.4,0.9-2.7,2.1c-0.1,0.3-0.2,0.7-0.2,1.2v4h-1.6V85.7z"/>
		<path class="st9" d="M262,83.7c2.1,0,2.8,1.3,2.8,1.3h0c0,0,0-0.1,0-0.3c0-0.5,0.3-0.9,1-0.9h1.6v1.4h-0.7c-0.2,0-0.4,0.1-0.4,0.3
			v6.5c0,2.8-2.2,3.9-4.3,3.9c-1,0-2.1-0.3-2.9-0.7l0.6-1.3c0,0,1.1,0.6,2.3,0.6c1.5,0,2.7-0.7,2.7-2.4v-0.6c0-0.3,0-0.5,0-0.5h0
			c-0.5,0.8-1.3,1.3-2.6,1.3c-2.4,0-3.8-1.9-3.8-4.4C258.2,85.5,259.6,83.7,262,83.7z M264.7,88c0-2.2-1.1-2.9-2.4-2.9
			c-1.5,0-2.3,1.1-2.3,2.8c0,1.8,0.9,3,2.5,3C263.6,90.9,264.7,90.2,264.7,88z"/>
		<path class="st9" d="M273.2,85.6c-0.1-0.3-0.3-0.3-0.5-0.3h-0.2v-1.4h1c0.8,0,1.1,0.2,1.3,0.9l1.5,5.1c0.1,0.4,0.2,0.9,0.2,0.9h0
			c0,0,0.1-0.5,0.2-0.9l1.9-6h1.5l1.9,6c0.1,0.4,0.2,0.9,0.2,0.9h0c0,0,0.1-0.5,0.2-0.9l1.5-5.1c0.2-0.7,0.5-0.9,1.3-0.9h1v1.4h-0.2
			c-0.3,0-0.4,0.1-0.5,0.3l-2.3,6.9h-1.9l-1.8-5.5c-0.1-0.4-0.2-0.9-0.2-0.9h0c0,0-0.1,0.5-0.2,0.9l-1.8,5.5h-1.9L273.2,85.6z"/>
		<path class="st9" d="M288,85.7c0-0.3-0.1-0.4-0.4-0.4h-0.7v-1.4h1.6c0.8,0,1.1,0.3,1.1,1.1v5.7c0,0.3,0.1,0.4,0.4,0.4h0.7v1.4
			h-1.6c-0.8,0-1.1-0.3-1.1-1.1V85.7z M288,80.5h1.5v1.7H288V80.5z"/>
		<path class="st9" d="M292.7,85.2h-1.1v-1.3h1.2v-2.4h1.6v2.4h2.1v1.3h-2.1v3.9c0,1.7,1.2,1.9,1.8,1.9c0.2,0,0.4,0,0.4,0v1.5
			c0,0-0.2,0-0.6,0c-1.1,0-3.3-0.3-3.3-3.2V85.2z"/>
		<path class="st9" d="M298.5,82.3c0-0.3-0.1-0.4-0.4-0.4h-0.7v-1.4h1.6c0.8,0,1.1,0.3,1.1,1.1v3.3c0,0.4,0,0.7,0,0.7h0
			c0.4-0.8,1.5-1.9,3.2-1.9c2,0,2.9,1.1,2.9,3.3v3.7c0,0.3,0.1,0.4,0.4,0.4h0.7v1.4h-1.6c-0.8,0-1.1-0.3-1.1-1.1v-4
			c0-1.2-0.3-2.2-1.6-2.2c-1.3,0-2.4,0.9-2.7,2.1c-0.1,0.3-0.2,0.7-0.2,1.1v4h-1.6V82.3z"/>
		<path class="st9" d="M313.2,86.7l8.6-3.8v2.5l-5.6,2.2v0l5.6,2.2v2.5l-8.6-3.8V86.7z"/>
		<path class="st9" d="M324.2,83.2c0-0.2-0.1-0.4-0.4-0.4h-0.6v-2.5h2.7c0.9,0,1.2,0.4,1.2,1.2v2.1c0,0.4,0,0.7,0,0.7h0
			c0,0,0.8-0.8,2.4-0.8c2.4,0,3.9,1.9,3.9,4.6c0,2.8-1.8,4.6-4.1,4.6c-1.6,0-2.4-0.9-2.4-0.9h0c0,0,0,0.2,0,0.5v0.2h-2.8V83.2z
			 M328.8,90.2c0.9,0,1.7-0.7,1.7-2.1c0-1.3-0.7-2.2-1.7-2.2c-0.9,0-1.7,0.6-1.7,2.2C327.1,89.2,327.6,90.2,328.8,90.2z"/>
		<path class="st9" d="M339.2,83.5c2.8,0,5,1.9,5,4.6c0,2.7-2.2,4.6-4.9,4.6c-2.8,0-4.9-1.8-4.9-4.6
			C334.3,85.4,336.5,83.5,339.2,83.5z M339.2,90.2c1.1,0,2-0.8,2-2.1c0-1.3-0.9-2.2-2-2.2c-1.1,0-2,0.8-2,2.2
			C337.3,89.4,338.2,90.2,339.2,90.2z"/>
		<path class="st9" d="M349,83.5c1.8,0,2.3,0.6,2.3,0.6h0c0,0,0-0.2,0-0.4v-0.6c0-0.2-0.1-0.4-0.4-0.4h-0.6v-2.5h2.7
			c0.9,0,1.2,0.4,1.2,1.2v8.1c0,0.2,0.1,0.4,0.4,0.4h0.6v2.5h-2.6c-0.8,0-1.1-0.4-1.1-0.8c0-0.1,0-0.2,0-0.2h0c0,0-0.7,1.2-2.5,1.2
			c-2.4,0-3.9-1.9-3.9-4.6C345,85.3,346.7,83.5,349,83.5z M351.4,88.1c0-1.1-0.6-2.1-1.7-2.1c-0.9,0-1.7,0.7-1.7,2.1
			c0,1.3,0.7,2.2,1.7,2.2C350.6,90.2,351.4,89.6,351.4,88.1z"/>
		<path class="st9" d="M357.8,93.6c0.5,0,1-0.1,1.3-0.9l0.1-0.3l-2.8-6c-0.1-0.2-0.2-0.3-0.4-0.3h-0.3v-2.5h2.1c0.5,0,0.8,0.3,1,0.7
			l1.3,3.5c0.2,0.5,0.3,1.4,0.3,1.4h0c0,0,0.2-0.9,0.3-1.4l1-3.5c0.1-0.5,0.6-0.7,1-0.7h2.2v2.5h-0.3c-0.2,0-0.3,0.1-0.4,0.3l-2.7,7
			c-0.7,1.9-2.3,2.6-3.7,2.6c-1.5,0-2.5-0.9-2.5-0.9l1.1-2.1C356.6,93,357.1,93.6,357.8,93.6z"/>
		<path class="st9" d="M366.4,89.8l5.6-2.2v0l-5.6-2.2v-2.5l8.6,3.8v1.8l-8.6,3.8V89.8z"/>
	</g>
	<g>
		<g>
			<path class="st9" d="M293,38.4c4,0,11.2,1.7,11.2,6.5v2.9h-3.9v-1.7c0-2.5-4.2-3.8-7.2-3.8c-6,0-10.6,4.5-10.6,11.2
				c0,6.5,4.7,11.7,10.8,11.7c5.9,0,9.4-4.1,9.4-4.1l2.3,3c0,0-4.2,5-11.7,5c-8.9,0-15.1-6.9-15.1-15.7
				C278.1,45,284.5,38.4,293,38.4z"/>
			<path class="st9" d="M319.2,46.9c6.4,0,11.5,4.7,11.5,11.1c0,6.5-5.1,11.2-11.5,11.2c-6.4,0-11.5-4.7-11.5-11.2
				C307.7,51.6,312.9,46.9,319.2,46.9z M319.2,65.7c4.1,0,7.3-3.2,7.3-7.7c0-4.4-3.3-7.6-7.3-7.6c-4,0-7.3,3.2-7.3,7.6
				C311.9,62.5,315.2,65.7,319.2,65.7z"/>
			<path class="st9" d="M343.5,46.9c4.9,0,6.6,3.3,6.6,3.3h0.1c0,0-0.1-0.6-0.1-1.4v-5.4c0-0.6-0.3-0.9-0.9-0.9h-1.7V39h4.1
				c1.9,0,2.7,0.8,2.7,2.7v22.7c0,0.6,0.3,0.9,0.9,0.9h1.7v3.5h-3.9c-1.9,0-2.6-0.8-2.6-2.3c0-0.6,0-1.1,0-1.1h-0.1
				c0,0-1.8,3.9-7,3.9c-5.8,0-9.4-4.6-9.4-11.2C333.8,51.3,337.8,46.9,343.5,46.9z M350.2,58c0-3.8-2-7.6-6.1-7.6
				c-3.3,0-6.1,2.8-6.1,7.6c0,4.6,2.5,7.6,6,7.6C347.2,65.7,350.2,63.5,350.2,58z"/>
			<path class="st9" d="M370,46.9c6,0,9.2,4.5,9.2,10c0,0.5-0.1,1.7-0.1,1.7h-15.6c0.3,4.6,3.5,7.1,7.3,7.1c3.7,0,6.2-2.5,6.2-2.5
				l1.8,2.9c0,0-3.2,3.1-8.2,3.1c-6.8,0-11.4-4.9-11.4-11.2C359.3,51.3,364,46.9,370,46.9z M375,55.6c-0.1-3.5-2.4-5.4-5-5.4
				c-3.1,0-5.7,1.9-6.3,5.4H375z"/>
			<path class="st9" d="M384.7,51.8c0-0.6-0.3-0.9-0.9-0.9H382v-3.5h3.9c1.9,0,2.7,0.8,2.7,2.5v1.4c0,0.8-0.1,1.5-0.1,1.5h0.1
				c1-3.1,3.5-5.6,6.8-5.6c0.5,0,1.1,0.1,1.1,0.1v4.1c0,0-0.5-0.1-1.2-0.1c-2.6,0-5,1.9-6,5c-0.4,1.2-0.5,2.5-0.5,3.8v8.7h-4.1V51.8
				z"/>
			<path class="st9" d="M400.7,62.8c0,0,2.5,3.2,6.5,3.2c2,0,3.7-0.9,3.7-2.7c0-3.8-11.6-3.4-11.6-10.3c0-4.1,3.6-6,7.9-6
				c2.6,0,7,0.9,7,4.1v2h-3.7V52c0-1.3-1.9-1.8-3.2-1.8c-2.4,0-4,0.8-4,2.5c0,4.1,11.6,3.2,11.6,10.3c0,3.8-3.4,6.2-7.8,6.2
				c-5.7,0-8.5-3.8-8.5-3.8L400.7,62.8z"/>
		</g>
		<g>
			<path class="st12" d="M162.8,59c0,0,3.1,3.5,6.9,3.5c1.5,0,3-0.5,3-2.2c0-3.3-13.7-3.7-13.7-13.2c0-5.4,4.8-9.1,10.8-9.1
				c4,0,9.6,1.9,9.6,6.5v3.3h-6.8v-1.3c0-1.1-1.6-1.8-3-1.8c-1.5,0-3.1,0.6-3.1,2c0,3.7,13.7,3.2,13.7,13.1c0,5-3.9,9.3-10.7,9.3
				c-7.1,0-11-5-11-5L162.8,59z"/>
			<path class="st12" d="M184.9,54.1c0-0.6-0.3-0.9-0.9-0.9h-1.6V47h6.8c2.2,0,3.1,0.9,3.1,3.1v9.7c0,2,0.8,2.9,2.3,2.9
				c3.1,0,4.6-2.7,4.6-6V47h7.3v14.7c0,0.6,0.3,0.9,0.9,0.9h1.6v6.1h-6.5c-2,0-3.1-1-3.1-2.4V66c0-0.2,0-0.5,0-0.5h-0.1
				c-1.2,2.3-3.8,3.8-6.8,3.8c-4.3,0-7.7-2-7.7-8.1V54.1z"/>
			<path class="st12" d="M213.1,54.1c0-0.6-0.3-0.9-0.9-0.9h-1.6V47h6.5c2,0,3,1,3,2.4v0.3c0,0.2,0,0.5,0,0.5h0.1
				c1-1.5,3-3.8,6.4-3.8c2.7,0,4.9,1.2,6.1,3.7h0.1c1.1-1.8,3.7-3.7,7-3.7c4,0,7,2.2,7,8.1v7c0,0.6,0.3,0.9,0.9,0.9h1.6v6.1h-6.8
				c-2.2,0-3.1-0.9-3.1-3.1v-9.8c0-1.6-0.3-2.7-1.7-2.7c-2.2,0-3.5,1.8-3.9,4.2c-0.2,0.8-0.3,1.6-0.3,2.4v9h-7.3V55.9
				c0-1.6-0.3-2.7-1.7-2.7c-2.2,0-3.4,1.7-3.9,4c-0.2,0.8-0.3,1.7-0.3,2.6v9h-7.3V54.1z"/>
			<path class="st12" d="M263.3,46.5c6.9,0,12.3,4.6,12.3,11.4c0,6.8-5.4,11.3-12.3,11.3c-6.8,0-12.3-4.5-12.3-11.3
				C251,51.1,256.5,46.5,263.3,46.5z M263.3,63.2c2.7,0,4.9-2,4.9-5.2c0-3.3-2.3-5.4-4.9-5.4c-2.7,0-4.9,2.1-4.9,5.4
				C258.4,61.2,260.6,63.2,263.3,63.2z"/>
		</g>
	</g>
</g>
</svg>
