<?xml version="1.0" encoding="UTF-8"?>
<svg id="b" data-name="OBJECTS" xmlns="http://www.w3.org/2000/svg" width="411.79719" height="360.4776" viewBox="0 0 411.79719 360.4776">
  <g>
    <g>
      <g>
        <rect x="18.4468" y="138.7088" width="166.198996" height="122.6006" style="fill: #f8f8f8; stroke-width: 0px;"/>
        <rect x="18.4468" y="138.7088" width="166.198996" height="15.2915" style="fill: #dbdbdb; stroke-width: 0px;"/>
      </g>
      <g>
        <path d="m31.788799,146.7072c0,1.9326-1.5668,3.4994-3.4994,3.4994s-3.4991-1.5668-3.4991-3.4994,1.5665-3.4993,3.4991-3.4993,3.4994,1.5667,3.4994,3.4993Z" style="fill: #f2f2f2; stroke-width: 0px;"/>
        <path d="m43.571799,146.7072c0,1.9326-1.5667,3.4994-3.4993,3.4994s-3.4992-1.5668-3.4992-3.4994,1.5666-3.4993,3.4992-3.4993,3.4993,1.5667,3.4993,3.4993Z" style="fill: #f2f2f2; stroke-width: 0px;"/>
        <path d="m55.354899,146.7072c0,1.9326-1.5666,3.4994-3.4993,3.4994-1.9326,0-3.4993-1.5668-3.4993-3.4994s1.5667-3.4993,3.4993-3.4993c1.9327,0,3.4993,1.5667,3.4993,3.4993Z" style="fill: #f2f2f2; stroke-width: 0px;"/>
      </g>
      <polygon points="129.920597 187.3469 121.565097 178.9914 101.546297 199.0091 81.527598 178.9914 73.171998 187.3469 93.190598 207.3644 73.171998 227.3821 81.527598 235.7377 101.546297 215.72 121.565097 235.7377 129.920597 227.3821 109.901997 207.3644 129.920597 187.3469" style="fill: #eaeaea; stroke-width: 0px;"/>
    </g>
    <g>
      <g>
        <rect x="222.470294" y="61.3834" width="166.198996" height="122.6006" style="fill: #f8f8f8; stroke-width: 0px;"/>
        <rect x="222.470294" y="61.3834" width="166.198996" height="15.2915" style="fill: #dbdbdb; stroke-width: 0px;"/>
      </g>
      <g>
        <path d="m235.812294,69.3818c0,1.9326-1.5668,3.4994-3.4994,3.4994s-3.49919-1.5668-3.49919-3.4994,1.56659-3.4993,3.49919-3.4993,3.4994,1.5667,3.4994,3.4993Z" style="fill: #f2f2f2; stroke-width: 0px;"/>
        <path d="m247.595294,69.3818c0,1.9326-1.5667,3.4994-3.4993,3.4994s-3.499289-1.5668-3.499289-3.4994,1.566689-3.4993,3.499289-3.4993,3.4993,1.5667,3.4993,3.4993Z" style="fill: #f2f2f2; stroke-width: 0px;"/>
        <path d="m259.378393,69.3818c0,1.9326-1.566689,3.4994-3.4993,3.4994-1.9326,0-3.4993-1.5668-3.4993-3.4994s1.5667-3.4993,3.4993-3.4993c1.932611,0,3.4993,1.5667,3.4993,3.4993Z" style="fill: #f2f2f2; stroke-width: 0px;"/>
      </g>
      <polygon points="333.944092 110.0215 325.588592 101.666 305.569792 121.6837 285.551093 101.666 277.195493 110.0215 297.214092 130.039 277.195493 150.0567 285.551093 158.4123 305.569792 138.3946 325.588592 158.4123 333.944092 150.0567 313.925492 130.039 333.944092 110.0215" style="fill: #eaeaea; stroke-width: 0px;"/>
    </g>
  </g>
  <ellipse cx="205.348495" cy="342.922125" rx="203.165295" ry="17.555475" style="fill: #f0f0f0; stroke-width: 0px;"/>
  <g>
    <path d="m155.800096,63.4195c-1.547-3.2429-1.4652-6.3849.244609-9.4256l.830691-1.4492c.8126-1.3237,1.3319-2.3422,1.5578-3.055.2252-.712.1649-1.4346-.1841-2.1661-.8795-1.8436-2.8626-2.0299-5.9459-.5589-1.4304.6824-2.8176,1.5788-4.1617,2.6884-1.3434,1.1086-2.532,2.3404-3.565792,3.6908l-3.503308-7.3433c2.2874-2.7302,5.2441-4.96,8.868-6.6889,3.9101-1.8655,7.4009-2.5257,10.4701-1.9803,3.0704.5455,5.2949,2.2644,6.6748,5.1568.7736,1.6215,1.0338,3.107.7807,4.4571-.254,1.3506-.9595,3.0625-2.1159,5.136-.7665,1.4202-1.3109,2.4894-1.6313,3.2083-.320091.7189-.4796,1.4282-.476091,2.1294.002591.7019.201491,1.4657.595491,2.2911l.432509.9068-8.392809,4.0041-.4778-1.0015Zm6.4265,10.9539c-1.245-.4398-2.163-1.2805-2.7545-2.5203-.606391-1.2712-.6858-2.5214-.237-3.7503.446609-1.2278,1.3077-2.146,2.5788-2.7524,1.2399-.5915,2.4981-.6748,3.7744-.2497,1.2756.4266,2.2099,1.2583,2.8013,2.4981.5915,1.2398.6506,2.4903.179,3.749-.4727,1.2594-1.328891,2.1849-2.569,2.7764-1.271.6064-2.5302.6902-3.773.2492Z" style="fill: #e8e8e8; stroke-width: 0px;"/>
    <path d="m196.546795,35.41c2.09-4.9898,5.7004-8.0492,10.8298-9.1789l2.4606-.5205c2.3014-.4151,3.9659-.8535,4.993-1.3147,1.0254-.4613,1.7764-1.2538,2.2478-2.3793,1.1882-2.8366-.5915-5.2504-5.3357-7.2375-2.2011-.9218-4.599-1.5806-7.1931-1.9771-2.5923-.3967-5.1676-.496-7.721-.3025l4.7327-11.299c5.36-.1697,10.8293.9142,16.4054,3.2497,6.0166,2.5199,10.2591,5.7777,12.7248,9.7713,2.4669,3.995,2.7677,8.217.9037,12.6675-1.04509,2.495-2.4522,4.2772-4.22209,5.347-1.77151,1.0694-4.40151,1.994-7.88971,2.7751-2.3635.5635-4.1102,1.0246-5.2388,1.3859-1.1284.3616-2.085.8938-2.8688,1.601-.7856.7068-1.4438,1.6963-1.9756,2.9665l-.5844,1.3953-12.914-5.409.6454-1.5408Zm-5.8553,18.2028c-.754791-1.8391-.7314-3.7133.0676-5.6209.8192-1.9559,2.1435-3.299,3.9737-4.0276,1.8267-.7299,3.7214-.6838,5.6772.1354,1.9078.7992,3.2632,2.1285,4.0659,3.988.8004,1.8603.8034,3.7436.0044,5.6513s-2.1441,3.2282-4.0305,3.9611c-1.8883.7323-3.7864.6989-5.6943-.1003-1.9557-.8192-3.3127-2.1491-4.064-3.987Z" style="fill: #e8e8e8; stroke-width: 0px;"/>
  </g>
  <g>
    <polygon points="406.05549 215.3689 406.05549 209.6276 402.23879 209.6276 402.23879 215.3689 396.49779 215.3689 396.49779 219.1855 402.23879 219.1855 402.23879 224.9267 406.05549 224.9267 406.05549 219.1855 411.79719 219.1855 411.79719 215.3689 406.05549 215.3689" style="fill: #d4d4d4; stroke-width: 0px;"/>
    <polygon points="370.005705 31.599 370.005705 22.8427 364.184591 22.8427 364.184591 31.599 355.428705 31.599 355.428705 37.4199 364.184591 37.4199 364.184591 46.176 370.005705 46.176 370.005705 37.4199 378.76249 37.4199 378.76249 31.599 370.005705 31.599" style="fill: #d4d4d4; stroke-width: 0px;"/>
    <polygon points="354.138391 201.0782 354.138391 196.8969 351.358705 196.8969 351.358705 201.0782 347.177591 201.0782 347.177591 203.8578 351.358705 203.8578 351.358705 208.039 354.138391 208.039 354.138391 203.8578 358.319891 203.8578 358.319891 201.0782 354.138391 201.0782" style="fill: #d4d4d4; stroke-width: 0px;"/>
    <polygon points="115.711297 55.6481 115.711297 51.4668 112.931705 51.4668 112.931705 55.6481 108.750597 55.6481 108.750597 58.4277 112.931705 58.4277 112.931705 62.6089 115.711297 62.6089 115.711297 58.4277 119.892897 58.4277 119.892897 55.6481 115.711297 55.6481" style="fill: #d4d4d4; stroke-width: 0px;"/>
    <polygon points="83.480598 27.9965 83.480598 22.2552 79.663898 22.2552 79.663898 27.9965 73.922898 27.9965 73.922898 31.8131 79.663898 31.8131 79.663898 37.5543 83.480598 37.5543 83.480598 31.8131 89.222198 31.8131 89.222198 27.9965 83.480598 27.9965" style="fill: #d4d4d4; stroke-width: 0px;"/>
  </g>
  <g>
    <path d="m272.011093,39.7181c0,1.2057-.9775,2.1832-2.1832,2.1832-1.2056,0-2.1831-.9775-2.1831-2.1832,0-1.2058.9775-2.1831,2.1831-2.1831,1.2057,0,2.1832.9773,2.1832,2.1831Z" style="fill: #f2f2f2; stroke-width: 0px;"/>
    <path d="m280.951293,2.1832c0,1.2059-.9775,2.1834-2.1831,2.1834-1.2058,0-2.1833-.9775-2.1833-2.1834,0-1.2057.9775-2.1832,2.1833-2.1832,1.2056,0,2.1831.9775,2.1831,2.1832Z" style="fill: #f2f2f2; stroke-width: 0px;"/>
    <circle cx="323.602792" cy="20.1289" r="4.1344" style="fill: #f2f2f2; stroke-width: 0px;"/>
    <path d="m410.69689,175.4215c0,1.2059-.9774,2.1834-2.1831,2.1834s-2.1832-.9775-2.1832-2.1834c0-1.2057.9775-2.1832,2.1832-2.1832s2.1831.9775,2.1831,2.1832Z" style="fill: #f2f2f2; stroke-width: 0px;"/>
    <path d="m408.51379,243.5856c0,1.2057-.9775,2.1832-2.1832,2.1832s-2.1831-.9775-2.1831-2.1832c0-1.2058.9774-2.1831,2.1831-2.1831s2.1832.9773,2.1832,2.1831Z" style="fill: #f2f2f2; stroke-width: 0px;"/>
    <path d="m76.105998,124.366c0,1.2057-.9775,2.1832-2.1832,2.1832s-2.183094-.9775-2.183094-2.1832c0-1.2058.977394-2.1831,2.183094-2.1831s2.1832.9773,2.1832,2.1831Z" style="fill: #f2f2f2; stroke-width: 0px;"/>
    <circle cx="38.107499" cy="33.8194" r="4.1344" style="fill: #f2f2f2; stroke-width: 0px;"/>
    <path d="m119.633797,10.4954c0,1.2057-.9775,2.1832-2.1832,2.1832-1.2056,0-2.1831-.9775-2.1831-2.1832,0-1.2058.9775-2.1831,2.1831-2.1831,1.2057,0,2.1832.9773,2.1832,2.1831Z" style="fill: #f2f2f2; stroke-width: 0px;"/>
    <path d="m4.3663,141.4238c0,1.2058-.9774,2.1833-2.1832,2.1833-1.2056,0-2.1831-.9775-2.1831-2.1833,0-1.2057.9775-2.1831,2.1831-2.1831,1.2058,0,2.1832.9774,2.1832,2.1831Z" style="fill: #f2f2f2; stroke-width: 0px;"/>
    <path d="m4.3663,257.7674c0,1.2058-.9774,2.1832-2.1832,2.1832-1.2056,0-2.1831-.9774-2.1831-2.1832,0-1.2057.9775-2.1831,2.1831-2.1831,1.2058,0,2.1832.9774,2.1832,2.1831Z" style="fill: #f2f2f2; stroke-width: 0px;"/>
  </g>
  <g>
    <path d="m303.796292,329.1661c-.8087,5.3505-6.185,9.7281-11.9473,9.7281H121.355397c-5.7623,0-11.1974-4.3695-12.078-9.7099l-28.228499-171.1973c-.8805-5.3404,3.1136-9.7099,8.8759-9.7099h230.735594c5.762313,0,9.8152,4.3776,9.0065,9.7281l-25.870599,171.1609Z" style="fill: #b7b7b7; stroke-width: 0px;"/>
    <g>
      <polygon points="261.014893 91.0716 117.450705 91.0716 117.450705 293.3189 293.011493 293.3189 293.011493 123.5377 261.014893 91.0716" style="fill: #cecece; stroke-width: 0px;"/>
      <polygon points="261.014893 91.0716 293.246293 123.3029 261.014893 123.3029 261.014893 91.0716" style="fill: #989898; stroke-width: 0px;"/>
      <polygon points="253.962994 155.0271 239.647194 140.7113 205.348495 175.0082 171.049705 140.7113 156.733896 155.0271 191.032395 189.3237 156.733896 223.6206 171.049705 237.9364 205.348495 203.6395 239.647194 237.9364 253.962994 223.6206 219.664594 189.3237 253.962994 155.0271" style="fill: silver; stroke-width: 0px;"/>
    </g>
    <g>
      <path d="m222.008394,207.0176c-4.5268.0056-9.3218-3.5292-10.6555-7.8551l-6.5766-21.3308c-1.3337-4.3259-6.1287-7.8653-10.6555-7.8653h-116.951497c-4.5269,0-7.5834,3.6468-6.7925,8.104l28.546906,160.8631c.791,4.4571,5.141893,8.1039,9.668693,8.1039h202.588307c4.526787,0,8.810387-3.6581,9.519087-8.1291l19.6447-123.9344c.7087-4.471-2.4152-8.1245-6.9421-8.1189l-111.393997.1626Z" style="fill: #d3d3d3; stroke-width: 0px;"/>
      <path d="m193.517095,282.4053c0-6.2615,2.4865-11.142,7.4575-14.6419l2.394-1.6561c2.2714-1.4723,3.8524-2.6845,4.7427-3.6362.8885-.9508,1.336-2.1328,1.336-3.5449,0-3.5597-2.9793-5.3408-8.933-5.3408-2.762,0-5.6163.3689-8.5632,1.1056-2.9447.7356-5.7387,1.781-8.3781,3.1296v-14.1791c5.6464-2.578,11.9703-3.8665,18.9674-3.8665,7.5499,0,13.5361,1.581,17.9542,4.7419,4.4202,3.162,6.6293,7.5347,6.6293,13.1198,0,3.1308-.7055,5.6624-2.1165,7.5962-1.4132,1.9337-3.8072,4.0966-7.1821,6.4907-2.2714,1.6582-3.9299,2.9318-4.9731,3.8221-1.0432.8905-1.8262,1.8865-2.3468,2.9921-.52269,1.1056-.7828,2.4564-.7828,4.0502v1.7511h-16.2055v-1.9338Zm1.8884,22.0517c-1.6282-1.6262-2.4413-3.6372-2.4413-6.0312,0-2.4544.8131-4.4805,2.4413-6.0766,1.6241-1.5961,3.6674-2.3941,6.1217-2.3941,2.3941,0,4.4354.8131,6.1239,2.4393,1.6864,1.6284,2.5318,3.6373,2.5318,6.0314,0,2.394-.8454,4.405-2.5318,6.0312-1.6885,1.6261-3.7298,2.4392-6.1239,2.4392-2.4543,0-4.4976-.8131-6.1217-2.4392Z" style="fill: #fff; stroke-width: 0px;"/>
      <path d="m333.402392,206.855l-12.6686.0185c.2794,2.9166.4276,5.8608.4276,8.8314,0,66.4347-71.103687,120.2908-158.814496,120.2908-23.495799,0-45.796999-3.8685-65.861898-10.8043l2.438707,13.7421c.791,4.4571,5.141893,8.1039,9.668693,8.1039h202.588307c4.526787,0,8.810387-3.6581,9.519087-8.1291l19.6447-123.9344c.7087-4.471-2.4152-8.1245-6.9421-8.1189Z" style="fill: #3b3b3b; opacity: .1; stroke-width: 0px;"/>
    </g>
    <g style="opacity: .3;">
      <path d="m90.033398,193.8407c.6022,4.0381,1.2044,8.0762,1.8067,12.1143,1.4329,9.6086,2.8658,19.2172,4.2988,28.8258,1.745,11.7015,3.4901,23.4029,5.2351,35.1043,1.4982,10.0456,2.9963,20.0912,4.4944,30.1368.4977,3.3377.9955,6.6754,1.493307,10.0131.233693,1.5673.367093,3.1932.707093,4.7419.0145.0661.0202.1352.0302.2022.2051,1.3751,1.9405,2.1326,3.1639,1.7964,1.4725-.4046,2.0021-1.7846,1.7964-3.1639-.6022-4.0381-1.2044-8.0762-1.806593-12.1143-1.432907-9.6086-2.865907-19.2172-4.298807-28.8258-1.7451-11.7014-3.4901-23.4029-5.235193-35.1043-1.498107-10.0456-2.996207-20.0912-4.494307-30.1367-.4978-3.3377-.9955-6.6754-1.4933-10.0131-.2337-1.5673-.3671-3.1932-.7072-4.742-.0145-.066-.0201-.1352-.0301-.2022-.205093-1.3751-1.9406-2.1326-3.1639-1.7964-1.4725.4047-2.002193,1.7847-1.7965,3.1639h0Z" style="fill: #fff; stroke-width: 0px;"/>
    </g>
  </g>
  <g>
    <path d="m372.356991,104.7792c-15.8082,0-28.623286,12.8151-28.623286,28.6233,0,7.0651,2.564887,13.5278,6.807487,18.5203l-1.196,14.7376,13.6757-6.2004c2.9271,1.0099,6.0659,1.5658,9.3361,1.5658,15.8082,0,28.623299-12.8151,28.623299-28.6233s-12.8151-28.6233-28.623299-28.6233Z" style="fill: #949494; stroke-width: 0px;"/>
    <path d="m370.375491,148.055c-.5229-.5236-.7845-1.1702-.7845-1.9402,0-.7695.2616-1.4161.7845-1.9396.5244-.5238,1.170214-.7859,1.940214-.7859.770086,0,1.423786.2621,1.963786.7859.5375.5235.808,1.1701.808,1.9396,0,.77-.2705,1.4166-.808,1.9402-.54.5229-1.1937.7851-1.963786.7851-.77,0-1.415814-.2622-1.940214-.7851Zm-1.6161-32.1947h7.2055l-1.3389,23.049h-4.5277l-1.3389-23.049Z" style="fill: #f2f2f2; stroke-width: 0px;"/>
    <path d="m356.676591,148.5692c-3.107,0-6.1381-.273-9.0645-.7876.8555,1.4677,1.8354,2.8541,2.9291,4.1412l-1.196,14.7376,13.6757-6.2004c2.9271,1.0099,6.0659,1.5658,9.3361,1.5658,15.8082,0,28.623299-12.8151,28.623299-28.6233,0-3.8315-.7585-7.4844-2.1244-10.8244-5.7308,15.0771-22.444399,25.9911-42.179299,25.9911Z" style="fill: #3b3b3b; opacity: .1; stroke-width: 0px;"/>
  </g>
  <g>
    <path d="m79.096198,97.0359v-27.1413c0-3.2594-2.6668-5.9262-5.9262-5.9262H23.700499c-3.2594,0-5.9262,2.6668-5.9262,5.9262v34.2025c0,3.2594,2.6668,5.9262,5.9262,5.9262h69.670498l-14.2748-12.9874Z" style="fill: #b7b7b7; stroke-width: 0px;"/>
    <g>
      <g>
        <path d="m40.165199,83.1841c0,2.6035-1.5126,4.7141-3.378494,4.7141-1.865905,0-3.378505-2.1106-3.378505-4.7141,0-2.6036,1.5126-4.7142,3.378505-4.7142,1.865894,0,3.378494,2.1106,3.378494,4.7142Z" style="fill: #fff; stroke-width: 0px;"/>
        <path d="m62.626098,83.1841c0,2.6035-1.5126,4.7141-3.3785,4.7141s-3.3785-2.1106-3.3785-4.7141c0-2.6036,1.512606-4.7142,3.3785-4.7142s3.3785,2.1106,3.3785,4.7142Z" style="fill: #fff; stroke-width: 0px;"/>
      </g>
      <path d="m40.274199,96.3662c1.1583-1.2688,2.7697-2.266,4.373-2.8441,4.057506-1.463,7.98.0653,11.0712,2.8441.825306.7419,2.0516-.4766,1.2222-1.2222-3.4261-3.0799-7.8708-4.8895-12.4285-3.4001-1.9989.6532-4.0287,1.832-5.4601,3.4001-.7487.8202.4703,2.0459,1.2222,1.2222h0Z" style="fill: #fff; stroke-width: 0px;"/>
    </g>
    <path d="m79.096198,97.0359v-27.1413c0-3.2594-2.6668-5.9262-5.9262-5.9262h-5.0709c.8797,3.2242,1.3529,6.5664,1.3529,9.9964,0,14.417-8.1911,27.3273-21.113199,36.0585h45.032199l-14.2748-12.9874Z" style="fill: #3b3b3b; opacity: .1; stroke-width: 0px;"/>
  </g>
  <g>
    <g>
      <g>
        <path d="m250.043194,249.0493c-15.8644,15.8644-15.8644,41.5855,0,57.4499,15.8643,15.8644,41.585511,15.8644,57.449899,0,15.8643-15.8643,15.8643-41.5856,0-57.4499-15.864388-15.8644-41.585599-15.8643-57.449899,0Zm52.792999,52.7931c-13.292488,13.2925-34.843799,13.2925-48.136199,0-13.2925-13.2925-13.2925-34.8438,0-48.1362,13.2925-13.2925,34.843711-13.2925,48.136199,0,13.292512,13.2924,13.292512,34.8437,0,48.1362Z" style="fill: #949494; stroke-width: 0px;"/>
        <circle cx="278.768093" cy="277.7743" r="34.037433" style="fill: #fff; opacity: .3; stroke-width: 0px;"/>
      </g>
      <g>
        <rect x="323.285371" y="293.322834" width="7.201741" height="65.140231" transform="translate(-134.698351 326.595319) rotate(-45.000001)" style="fill: #848484; stroke-width: 0px;"/>
        <rect x="308.736705" y="299.349087" width="7.201781" height="23.990476" transform="translate(-128.672114 312.050456) rotate(-45.000492)" style="fill: #949494; stroke-width: 0px;"/>
      </g>
    </g>
    <path d="m258.952093,263.7781c1.2924-3.7255,4.1225-6.7378,7.5257-8.8301,3.425911-2.0774,7.4936-3.1924,11.5628-3.1912,4.0693-.0102,8.1402,1.1022,11.567112,3.1809,3.405788,2.0903,6.236188,5.1078,7.521488,8.8404-3.7219-1.2569-6.8692-2.2519-9.9958-2.8603-3.1008-.6288-6.0939-.9172-9.0928-.9317-2.999.0055-5.9952.2912-9.097.9214-3.1292.6064-6.2768,1.6066-9.9915,2.8706Z" style="fill: #fff; stroke-width: 0px;"/>
  </g>
</svg>